<?xml version="1.0" encoding="iso-8859-1"?>
<!-- Uploaded to: SVG Repo, www.svgrepo.com, Generator: SVG Repo Mixer Tools -->
<svg fill="#EEEEEE" height="800px" width="800px" version="1.1" id="Layer_1" xmlns="http://www.w3.org/2000/svg" xmlns:xlink="http://www.w3.org/1999/xlink" 
	 viewBox="-50 -50 650 650" xml:space="preserve">
	 <circle style="fill:#14b8a6;" cx="240" cy="270" r="290"/>
<g>
	<g>
		<path d="M331.184,216.856l-66.8-64.144V144h8c4.424,0,8-3.576,8-8s-3.576-8-8-8h-8V96h8c4.424,0,8-3.576,8-8s-3.576-8-8-8h-8V48h8
			c4.424,0,8-3.576,8-8s-3.576-8-8-8h-8V8c0-4.424-3.576-8-8-8h-32c-4.416,0-8,3.576-8,8v24h-8c-4.416,0-8,3.576-8,8s3.584,8,8,8h8
			v32h-8c-4.416,0-8,3.576-8,8s3.584,8,8,8h8v32h-8c-4.416,0-8,3.576-8,8s3.584,8,8,8h8v8.712l-66.8,64.144
			c-1.544,1.496-2.432,3.536-2.456,5.696c-0.024,2.152,0.824,4.208,2.344,5.736l22.624,22.632c1.504,1.504,3.536,2.344,5.656,2.344
			c2.12,0,4.16-0.84,5.656-2.344l39.472-39.48c4.448,4.776,10.704,7.544,17.504,7.544c6.8,0,13.056-2.776,17.504-7.536
			l39.472,39.472c1.504,1.504,3.528,2.344,5.656,2.344s4.16-0.84,5.656-2.344l22.632-22.632c1.52-1.512,2.368-3.584,2.344-5.736
			C333.624,220.392,332.744,218.352,331.184,216.856z M303.016,233.944l-40.968-40.976c-1.512-1.512-3.552-2.344-5.656-2.344
			c-0.448,0-0.896,0.04-1.352,0.12c-2.552,0.44-4.744,2.088-5.864,4.432l-1.568,3.272c-2.728,5.688-11.688,5.688-14.432,0
			l-1.576-3.28c-1.12-2.336-3.312-3.992-5.864-4.424c-2.56-0.448-5.168,0.392-7,2.224l-40.976,40.976l-11.192-11.2l63.368-60.848
			c1.56-1.52,2.448-3.6,2.448-5.776V16h16v140.12c0,2.176,0.888,4.264,2.464,5.776l63.368,60.848L303.016,233.944z"/>
	</g>
</g>
<g>
	<g>
		<path d="M174.608,124.84c-10.272-7.072-22.696-8.768-34.288-4.776c-0.68,0.088-1.352,0.256-2,0.512
			C54.528,154.176,0.384,231.856,0.384,318.472v87.408c0,23.784,11.176,45.248,30.664,58.896
			c12.392,8.688,26.608,13.128,41.064,13.128c8.296,0,16.672-1.464,24.832-4.432c0.336-0.12,0.664-0.264,0.992-0.432l34.168-17.952
			c3.912-2.064,5.416-6.896,3.36-10.808c-2.048-3.912-6.896-5.408-10.8-3.368l-33.672,17.696
			c-17.256,6.104-35.728,3.576-50.752-6.936c-15.168-10.616-23.856-27.304-23.856-45.8v-87.4
			c0-79.624,49.688-151.144,126.696-182.552c0.576-0.088,1.144-0.232,1.688-0.448c6.96-2.664,14.536-1.744,20.784,2.544
			c6.784,4.664,10.832,12.416,10.832,20.728c0,4.424,3.584,8,8,8s8-3.576,8-8C192.384,145.16,185.736,132.488,174.608,124.84z"/>
	</g>
</g>
<g>
	<g>
		<circle cx="129.504" cy="224" r="9.248"/>
	</g>
</g>
<g>
	<g>
		<circle cx="64.384" cy="284.496" r="9.248"/>
	</g>
</g>
<g>
	<g>
		<circle cx="74.784" cy="369.52" r="9.248"/>
	</g>
</g>
<g>
	<g>
		<path d="M342.44,120.576c-0.472-0.192-1.112-0.336-1.752-0.432c-11.648-4.12-24.176-2.432-34.528,4.688
			c-11.128,7.656-17.776,20.328-17.776,33.912c0,4.424,3.576,8,8,8s8-3.576,8-8c0-8.312,4.056-16.064,10.832-20.728
			c6.248-4.296,13.824-5.208,20.784-2.544c0.408,0.16,0.944,0.28,1.504,0.368c77.112,31.36,126.88,102.936,126.88,182.632v87.408
			c0,18.496-8.696,35.176-23.848,45.8c-15.152,10.624-33.832,13.088-51.24,6.768l-47.992-17.432
			c-4.168-1.504-8.744,0.632-10.248,4.784c-1.512,4.16,0.632,8.744,4.784,10.248l47.992,17.432
			c8.16,2.968,16.528,4.432,24.832,4.432c14.464,0,28.672-4.44,41.064-13.128c19.48-13.656,30.656-35.128,30.656-58.912v-87.4
			C480.384,231.848,426.232,154.176,342.44,120.576z"/>
	</g>
</g>
<g>
	<g>
		<circle cx="351.232" cy="224" r="9.248"/>
	</g>
</g>
<g>
	<g>
		<circle cx="416.384" cy="284.496" r="9.248"/>
	</g>
</g>
<g>
	<g>
		<circle cx="389.984" cy="369.52" r="9.248"/>
	</g>
</g>
<g>
	<g>
		<path d="M231.896,257.552c-61.544,0-111.608,50.072-111.608,111.608s50.064,111.608,111.608,111.608
			s111.616-50.072,111.616-111.608S293.44,257.552,231.896,257.552z M231.896,464.776c-52.72,0-95.608-42.888-95.608-95.608
			c0-52.72,42.888-95.608,95.608-95.608c52.72,0,95.616,42.888,95.616,95.608C327.512,421.888,284.616,464.776,231.896,464.776z"/>
	</g>
</g>
<g>
	<g>
		<polygon points="256.384,344 256.384,312 208.384,312 208.384,344 176.384,344 176.384,392 208.384,392 208.384,424 256.384,424 
			256.384,392 288.384,392 288.384,344 		"/>
	</g>
</g>
</svg>