<svg xmlns="http://www.w3.org/2000/svg" xmlns:xlink="http://www.w3.org/1999/xlink" width="500" zoomAndPan="magnify" viewBox="0 0 375 374.999991" height="500" preserveAspectRatio="xMidYMid meet" version="1.0"><defs>
<filter x="0%" y="0%" width="100%" height="100%" id="777bdfaf71">
<feColorMatrix values="0 0 0 0 1 0 0 0 0 1 0 0 0 0 1 0 0 0 1 0" color-interpolation-filters="sRGB"/></filter><g/><clipPath id="3d2046c921"><path d="M 40.292969 37.5 L 334 37.5 L 334 337.5 L 40.292969 337.5 Z M 40.292969 37.5 " clip-rule="nonzero"/></clipPath><mask id="9fd4f6a7bb"><g filter="url(#777bdfaf71)"><rect x="-37.5" width="450" fill="#000000" y="-37.499999" height="449.999989" fill-opacity="0.3"/></g></mask><clipPath id="5f1a1ae8bf"><path d="M 0.691406 0.160156 L 140.191406 0.160156 L 140.191406 153.160156 L 0.691406 153.160156 Z M 0.691406 0.160156 " clip-rule="nonzero"/></clipPath><clipPath id="07dc5515d7"><rect x="0" width="141" y="0" height="154"/></clipPath><mask id="461a6441b9"><g filter="url(#777bdfaf71)"><rect x="-37.5" width="450" fill="#000000" y="-37.499999" height="449.999989" fill-opacity="0.5"/></g></mask><clipPath id="775524a1d1"><path d="M 24 0.5 L 26 0.5 L 26 4 L 24 4 Z M 24 0.5 " clip-rule="nonzero"/></clipPath><clipPath id="aa9cb00f47"><path d="M 1.035156 21 L 5 21 L 5 23 L 1.035156 23 Z M 1.035156 21 " clip-rule="nonzero"/></clipPath><clipPath id="e6e987f274"><path d="M 1.035156 24 L 4 24 L 4 25 L 1.035156 25 Z M 1.035156 24 " clip-rule="nonzero"/></clipPath><clipPath id="f48cd2f782"><path d="M 1.035156 29 L 4 29 L 4 31 L 1.035156 31 Z M 1.035156 29 " clip-rule="nonzero"/></clipPath><clipPath id="b2fb7f34f8"><path d="M 1.035156 32 L 5 32 L 5 33 L 1.035156 33 Z M 1.035156 32 " clip-rule="nonzero"/></clipPath><clipPath id="43de4b9f9d"><path d="M 3 36 L 6 36 L 6 38.75 L 3 38.75 Z M 3 36 " clip-rule="nonzero"/></clipPath><clipPath id="fb6fe41146"><path d="M 49 36 L 52 36 L 52 38.75 L 49 38.75 Z M 49 36 " clip-rule="nonzero"/></clipPath><clipPath id="e4b416d2ea"><path d="M 51 29 L 54.285156 29 L 54.285156 31 L 51 31 Z M 51 29 " clip-rule="nonzero"/></clipPath><clipPath id="2714928d46"><path d="M 51 24 L 54.285156 24 L 54.285156 25 L 51 25 Z M 51 24 " clip-rule="nonzero"/></clipPath><clipPath id="4a73cd2900"><path d="M 30 0.5 L 31 0.5 L 31 4 L 30 4 Z M 30 0.5 " clip-rule="nonzero"/></clipPath><clipPath id="74e01d3a65"><path d="M 27 0.5 L 29 0.5 L 29 4 L 27 4 Z M 27 0.5 " clip-rule="nonzero"/></clipPath><clipPath id="a65bbc70c0"><path d="M 1.035156 26 L 5 26 L 5 28 L 1.035156 28 Z M 1.035156 26 " clip-rule="nonzero"/></clipPath><clipPath id="98dcf17c67"><path d="M 4 38 L 8 38 L 8 38.75 L 4 38.75 Z M 4 38 " clip-rule="nonzero"/></clipPath><clipPath id="53dcb0383c"><path d="M 47 38 L 52 38 L 52 38.75 L 47 38.75 Z M 47 38 " clip-rule="nonzero"/></clipPath><clipPath id="bec8f302c2"><path d="M 50 26 L 54.285156 26 L 54.285156 28 L 50 28 Z M 50 26 " clip-rule="nonzero"/></clipPath><clipPath id="e9261e8809"><rect x="0" width="55" y="0" height="54"/></clipPath><clipPath id="bb2acb360b"><path d="M 37.5 301 L 187.5 301 L 187.5 327.46875 L 37.5 327.46875 Z M 37.5 301 " clip-rule="nonzero"/></clipPath><clipPath id="19cbfc1f15"><path d="M 112.5 324 L 187.5 324 L 187.5 337.21875 L 112.5 337.21875 Z M 112.5 324 " clip-rule="nonzero"/></clipPath><clipPath id="bd3d98854c"><path d="M 187.5 301 L 337.5 301 L 337.5 327.46875 L 187.5 327.46875 Z M 187.5 301 " clip-rule="nonzero"/></clipPath><clipPath id="71050e8c62"><path d="M 187.5 324 L 262.5 324 L 262.5 337.21875 L 187.5 337.21875 Z M 187.5 324 " clip-rule="nonzero"/></clipPath><clipPath id="d1afd60ea3"><path d="M 123 121.457031 L 168 121.457031 L 168 169.457031 L 123 169.457031 Z M 123 121.457031 " clip-rule="nonzero"/></clipPath><mask id="f7ea80d4b5"><g filter="url(#777bdfaf71)"><rect x="-37.5" width="450" fill="#000000" y="-37.499999" height="449.999989" fill-opacity="0.5"/></g></mask><clipPath id="1d4843f0cb"><path d="M 0.238281 0.320312 L 9.839844 0.320312 L 9.839844 9.199219 L 0.238281 9.199219 Z M 0.238281 0.320312 " clip-rule="nonzero"/></clipPath><clipPath id="b7b4b345f5"><rect x="0" width="10" y="0" height="10"/></clipPath><mask id="4d4bf35f0e"><g filter="url(#777bdfaf71)"><rect x="-37.5" width="450" fill="#000000" y="-37.499999" height="449.999989" fill-opacity="0.5"/></g></mask><clipPath id="96ec52b943"><path d="M 0.28125 0.558594 L 8.441406 0.558594 L 8.441406 21.199219 L 0.28125 21.199219 Z M 0.28125 0.558594 " clip-rule="nonzero"/></clipPath><clipPath id="ff9b863a10"><rect x="0" width="9" y="0" height="22"/></clipPath></defs><rect x="-37.5" width="450" fill="#ffffff" y="-37.499999" height="449.999989" fill-opacity="1"/><rect x="-37.5" width="450" fill="#ffffff" y="-37.499999" height="449.999989" fill-opacity="1"/><g clip-path="url(#3d2046c921)"><path fill="#dfe2e4" d="M 325.6875 294.144531 C 323.207031 291.488281 320.546875 289 317.945312 286.46875 C 297.566406 266.6875 276.722656 247.425781 253.867188 230.472656 C 249.402344 227.15625 244.734375 224.105469 240.070312 221.027344 C 244.183594 216.03125 247.835938 210.71875 251.023438 205.085938 C 254.214844 199.457031 256.894531 193.59375 259.0625 187.496094 C 261.234375 181.398438 262.859375 175.160156 263.945312 168.78125 C 265.03125 162.398438 265.558594 155.972656 265.523438 149.503906 C 265.210938 87.265625 214.445312 37.5 152.199219 37.800781 C 90.484375 38.101562 40 88.566406 40.363281 150.476562 C 40.722656 213.496094 92.191406 262.703125 153.378906 262.191406 C 158.886719 262.203125 164.363281 261.808594 169.8125 261.007812 C 175.261719 260.207031 180.621094 259.003906 185.890625 257.402344 C 191.160156 255.804688 196.28125 253.820312 201.253906 251.457031 C 206.226562 249.09375 211 246.375 215.566406 243.300781 C 222.917969 255.066406 231.472656 265.933594 240.359375 276.570312 C 255.945312 295.230469 272.625 312.867188 289.828125 330.035156 C 290.996094 331.238281 292.277344 332.304688 293.671875 333.234375 C 295.066406 334.167969 296.546875 334.941406 298.105469 335.558594 C 299.664062 336.175781 301.269531 336.625 302.925781 336.902344 C 304.578125 337.179688 306.246094 337.28125 307.921875 337.207031 C 318.765625 336.816406 326.808594 331.589844 330.941406 321.59375 C 335.074219 311.59375 333.195312 302.171875 325.6875 294.144531 Z M 153.019531 241.871094 C 102.390625 242.203125 61.09375 200.917969 60.875 150.144531 C 60.65625 99.640625 101.765625 58.539062 152.8125 58.226562 C 203.402344 57.910156 244.945312 99.089844 244.976562 149.855469 C 245.007812 201.03125 204.464844 241.53125 153.019531 241.871094 Z M 153.019531 241.871094 " fill-opacity="1" fill-rule="nonzero"/></g><path fill="#ffffff" d="M 152.8125 58.226562 C 101.765625 58.539062 60.65625 99.640625 60.875 150.144531 C 61.09375 200.910156 102.390625 242.230469 153.019531 241.871094 C 204.464844 241.53125 245.007812 201.03125 244.976562 149.855469 C 244.945312 99.089844 203.402344 57.910156 152.8125 58.226562 Z M 152.8125 58.226562 " fill-opacity="1" fill-rule="nonzero"/><g mask="url(#9fd4f6a7bb)"><g transform="matrix(1, 0, 0, 1, 94, 76)"><g clip-path="url(#07dc5515d7)"><g clip-path="url(#5f1a1ae8bf)"><path fill="#4285f4" d="M 119.65625 78.65625 L 119.953125 79.175781 L 120.214844 79.175781 L 120.304688 78.878906 L 120.269531 78.488281 L 120.675781 78.582031 L 121.046875 79.101562 L 121.046875 79.488281 L 121.601562 79.488281 L 121.601562 79.007812 L 121.953125 78.785156 L 121.953125 78.359375 L 122.214844 78.230469 L 122.4375 78.230469 L 122.65625 78.527344 L 122.824219 78.230469 L 122.824219 77.230469 L 122.65625 76.746094 L 122.527344 75.542969 L 122.527344 74.671875 L 122.269531 74.636719 L 122.140625 74.15625 L 122.824219 74.15625 L 123.085938 74.117188 L 123.34375 73.765625 C 123.34375 73.765625 123.511719 72.859375 123.566406 72.726562 C 123.601562 72.597656 123.472656 71.820312 123.566406 71.691406 C 123.660156 71.5625 123.566406 70.785156 123.566406 70.785156 L 123.34375 69.785156 L 122.917969 69.171875 L 122.917969 68.746094 L 122.65625 68.503906 L 122.75 68.191406 C 122.75 68.191406 122.789062 67.96875 122.917969 67.894531 C 123.046875 67.800781 123.601562 68.503906 123.601562 68.503906 L 123.769531 68.503906 L 123.9375 68.152344 L 124.417969 67.988281 C 124.417969 67.988281 124.714844 68.023438 124.714844 68.210938 C 124.714844 68.375 124.714844 68.523438 124.714844 68.523438 L 125.011719 68.523438 L 125.363281 68.246094 L 125.789062 68.246094 C 125.789062 68.246094 126.085938 68.355469 126.085938 68.523438 C 126.085938 68.671875 126.382812 68.988281 126.382812 68.988281 L 126.898438 68.523438 L 127.066406 67.5625 C 127.066406 67.5625 127.195312 67.136719 127.289062 66.949219 C 127.382812 66.78125 127.640625 66.394531 127.640625 66.394531 L 127.640625 65.96875 L 127.863281 65.414062 L 127.863281 65.171875 L 128.160156 65.132812 L 128.457031 64.839844 L 128.457031 64.578125 L 128.675781 64.226562 L 128.675781 63.839844 L 128.972656 63.542969 L 129.234375 63.023438 L 129.234375 62.46875 L 128.808594 62.042969 C 128.808594 62.042969 128.457031 62.003906 128.511719 61.820312 C 128.546875 61.652344 128.675781 61.394531 128.675781 61.394531 L 128.714844 60.578125 L 129.234375 60.410156 L 129.457031 60.117188 L 129.621094 59.597656 L 129.917969 59.171875 L 130.34375 58.875 L 130.34375 58.449219 C 130.34375 58.449219 130.34375 58.320312 130.34375 58.1875 C 130.34375 58.058594 130.4375 57.835938 130.566406 57.707031 C 130.695312 57.578125 130.824219 57.410156 130.824219 57.410156 L 130.566406 56.894531 L 130.4375 56.152344 L 130.308594 55.597656 L 130.53125 54.855469 L 130.824219 54.375 C 130.824219 54.375 130.917969 54.28125 131.046875 54.242188 C 131.179688 54.207031 131.605469 54.113281 131.605469 54.113281 L 132.253906 53.300781 C 132.253906 53.300781 132.546875 53.039062 132.679688 53.039062 C 132.808594 53.039062 133.195312 52.613281 133.195312 52.613281 L 133.417969 52.226562 L 133.84375 52.1875 C 133.84375 52.1875 133.9375 52.1875 134.105469 52.023438 C 134.269531 51.855469 134.363281 51.503906 134.363281 51.503906 C 134.363281 51.503906 134.714844 51.207031 134.789062 51.078125 C 134.882812 50.949219 135.269531 50.59375 135.402344 50.59375 C 135.53125 50.59375 136.4375 50.375 136.4375 50.375 L 136.863281 50.242188 L 136.863281 49.984375 L 137.253906 50.019531 L 137.605469 49.929688 L 138.03125 49.890625 L 138.289062 50.152344 L 138.289062 50.835938 L 138.640625 50.800781 L 139.03125 51.019531 L 139.382812 51.152344 L 139.605469 50.984375 L 139.605469 50.59375 L 139.050781 49.816406 L 138.492188 49.429688 L 138.363281 48.484375 L 138.457031 48.1875 L 138.808594 47.929688 L 139.457031 47.058594 L 140.066406 46.761719 L 140.328125 46.761719 L 140.328125 45.984375 C 140.160156 45.632812 139.9375 45.207031 139.9375 45.207031 L 139.382812 44.429688 L 138.828125 44.390625 L 138.476562 44.558594 L 138.050781 44.519531 L 137.753906 44.519531 L 137.273438 44.484375 L 137.050781 44.261719 L 136.753906 44.261719 L 136.234375 44.429688 C 136.234375 44.429688 136.105469 44.296875 135.976562 44.464844 C 135.84375 44.632812 135.882812 44.816406 135.882812 44.816406 L 135.753906 45.074219 L 135.105469 44.816406 L 135.234375 44.261719 L 135.363281 43.835938 L 135.492188 43.445312 L 135.660156 43.09375 L 135.917969 42.871094 L 136.085938 42.648438 L 136.308594 42.261719 L 135.660156 41.964844 L 135.402344 41.351562 L 134.714844 41.484375 L 134.625 42 L 134.140625 42.167969 L 134.140625 41.519531 L 133.714844 41.261719 L 133.882812 41.039062 L 134.105469 40.777344 L 134.328125 40.390625 L 134.753906 40.390625 L 134.195312 40.039062 L 133.457031 39.167969 L 132.511719 39.777344 L 131.34375 40.519531 L 131.179688 41.074219 L 130.917969 41.5 L 130.917969 41.761719 L 129.972656 41.761719 L 129.492188 41.371094 L 129.140625 41.371094 L 128.363281 41.410156 L 127.808594 41.148438 L 127.25 40.722656 L 126.957031 40.6875 L 126.660156 41.074219 C 126.660156 41.074219 126.492188 41.203125 126.234375 41.296875 C 125.972656 41.390625 125.714844 41.390625 125.714844 41.390625 L 124.378906 43.074219 L 123.695312 43.6875 L 122.953125 44.207031 L 122.175781 44.335938 C 122.175781 44.335938 121.824219 44.6875 121.621094 44.6875 C 121.417969 44.6875 120.75 44.78125 120.75 44.78125 L 120.621094 45.335938 L 120.324219 46.078125 C 120.324219 46.078125 120.492188 46.207031 120.101562 46.464844 C 119.714844 46.722656 118.804688 47.113281 118.804688 47.113281 L 118.507812 47.503906 L 118.675781 47.890625 L 118.546875 48.539062 L 118.195312 48.796875 L 117.769531 49.152344 L 117.082031 49.28125 L 116.527344 49.410156 L 116.175781 49.503906 L 115.65625 49.800781 C 115.65625 49.800781 115.230469 49.890625 115.101562 49.890625 C 114.972656 49.890625 114.453125 49.929688 114.453125 49.929688 L 113.933594 49.890625 L 113.769531 50.835938 L 113.898438 51.132812 L 114.417969 51.484375 L 115.027344 51.449219 L 115.378906 51.316406 L 115.730469 51.226562 L 116.210938 51.613281 L 116.34375 52.09375 L 116.082031 52.449219 L 115.695312 52.800781 L 115.917969 53.058594 L 116.304688 53.539062 L 116.433594 54.152344 C 116.433594 54.152344 116.601562 54.539062 116.34375 54.539062 C 116.082031 54.539062 115.566406 54.410156 115.566406 54.410156 L 115.398438 54.800781 L 114.972656 54.539062 L 114.804688 54.835938 L 114.285156 54.929688 C 114.285156 54.929688 114.027344 54.964844 113.859375 55.023438 C 113.695312 55.078125 113.433594 54.726562 113.433594 54.726562 L 113.175781 54.761719 L 112.824219 55.058594 C 112.824219 55.058594 112.398438 55.058594 112.269531 55.058594 C 112.136719 55.058594 111.710938 55.097656 111.710938 55.097656 L 110.546875 55.097656 L 109.546875 55.058594 L 108.898438 54.539062 L 107.765625 54.375 L 107.636719 54.855469 C 107.636719 54.855469 107.414062 54.984375 107.25 55.023438 C 107.082031 55.058594 106.5625 55.1875 106.5625 55.1875 L 105.914062 55.410156 L 105.394531 55.578125 L 104.96875 55.578125 L 104.359375 55.539062 L 103.878906 55.578125 L 104.101562 55.226562 L 103.617188 55.261719 L 103.394531 55.097656 C 103.394531 55.097656 103.136719 54.746094 103.007812 54.800781 C 102.878906 54.835938 102.617188 55.023438 102.617188 55.023438 L 101.933594 55.152344 L 101.710938 54.800781 L 100.96875 54.449219 L 100.878906 54.1875 L 100.746094 53.800781 L 100.523438 53.410156 L 100.617188 52.984375 L 100.746094 52.632812 L 100.878906 52.410156 L 100.746094 52.058594 L 100.488281 51.707031 L 100.394531 51.316406 C 100.394531 51.316406 100.359375 51.058594 100.433594 50.890625 C 100.523438 50.726562 100.65625 50.410156 100.65625 50.410156 L 100.691406 49.929688 L 100.785156 49.445312 L 100.691406 48.835938 L 100.46875 48.484375 L 99.730469 48.355469 L 99.433594 48.226562 L 99.042969 48.316406 L 98.5625 48.613281 L 98.210938 48.652344 L 98.042969 48.871094 L 97.097656 48.964844 L 97.097656 49.226562 L 97.320312 49.652344 L 97.320312 50.132812 L 97.226562 50.6875 L 96.671875 51.300781 L 96.636719 52.039062 L 96.597656 52.984375 L 96.691406 53.855469 L 97.042969 53.726562 L 97.082031 54.113281 L 97.246094 54.855469 L 97.726562 55.539062 C 97.726562 55.539062 97.597656 55.539062 97.507812 55.835938 C 97.414062 56.132812 97.246094 56.578125 97.246094 56.578125 L 96.765625 56.671875 L 96.542969 57.484375 L 95.859375 56.835938 L 95.726562 57.097656 L 94.949219 57.226562 L 94.394531 57.394531 L 93.710938 57.226562 L 93.414062 57.613281 C 93.152344 57.707031 92.988281 57.449219 92.988281 57.449219 C 92.636719 57.320312 92.300781 57.226562 92.300781 57.226562 L 92.265625 56.613281 L 92.003906 56.578125 L 91.839844 56.800781 L 91.617188 56.929688 L 91.394531 57.097656 L 91.097656 57.132812 L 90.746094 57.171875 L 90.488281 57.429688 L 90.191406 56.949219 L 89.058594 56.394531 L 88.542969 56.261719 L 88.28125 56.355469 L 87.542969 56.261719 L 87.023438 56.300781 L 86.671875 56.523438 L 86.449219 56.652344 C 86.449219 56.652344 86.578125 56.171875 85.800781 56.226562 L 85.929688 55.097656 L 85.1875 55.097656 L 84.449219 55.652344 L 83.835938 55.78125 L 83.484375 55.097656 L 82.875 55.058594 L 82.613281 54.671875 L 81.875 54.449219 L 81.097656 54.28125 C 81.097656 54.28125 80.578125 54.410156 80.875 53.726562 C 81.171875 53.039062 80.835938 52.597656 80.835938 52.597656 L 79.835938 52.464844 L 79.28125 52.242188 L 79.058594 51.890625 L 78.632812 51.726562 L 78.242188 51.558594 L 78.242188 51.984375 L 77.632812 51.984375 L 76.816406 52.242188 L 76.300781 52.023438 L 75.519531 51.855469 L 74.964844 51.855469 L 74.800781 52.152344 L 74.28125 52.667969 L 73.796875 51.929688 L 73.445312 51.890625 L 72.707031 51.667969 L 72.316406 51.539062 L 71.707031 51.503906 L 71.835938 50.984375 L 71.574219 50.429688 L 71.058594 50.390625 L 70.574219 50.519531 L 70.355469 50.484375 L 69.667969 50.132812 L 69.484375 50.09375 L 68.445312 49.410156 L 68.09375 49.316406 C 68.09375 49.316406 67.925781 49.707031 67.796875 49.707031 C 67.667969 49.707031 67.410156 49.316406 67.277344 49.316406 C 67.148438 49.316406 66.335938 48.890625 66.335938 48.890625 L 65.648438 48.28125 L 65.351562 47.984375 L 64.871094 47.945312 L 64.964844 47.019531 L 64.445312 46.796875 L 64.019531 46.632812 L 63.667969 46.410156 L 63.054688 46.410156 L 63.222656 46.113281 L 62.796875 46.078125 L 62.371094 45.648438 L 61.945312 45.261719 L 61.628906 45.167969 L 61.5 45.722656 L 61.203125 45.429688 L 60.648438 45.335938 L 60.351562 44.722656 L 59.871094 44.464844 L 60.390625 43.519531 L 60.871094 42.648438 L 61.167969 42.222656 L 61.519531 42.1875 L 61.222656 41.242188 C 61.222656 41.242188 61.1875 41.113281 61.222656 40.890625 C 61.257812 40.667969 61 40.722656 61.257812 40.667969 C 61.519531 40.632812 61.742188 40.667969 61.742188 40.539062 C 61.742188 40.410156 61.742188 39.242188 61.742188 39.242188 L 62.261719 39.113281 C 62.261719 39.113281 62.648438 38.722656 62.648438 38.59375 C 62.648438 38.464844 62.816406 38.203125 62.816406 38.203125 L 63.296875 38.167969 L 63.6875 37.519531 L 63.945312 37.390625 L 64.296875 37.351562 L 64.296875 37.019531 L 63.816406 36.667969 L 63.335938 36.539062 L 62.90625 35.757812 L 62.554688 35.667969 C 62.296875 35.574219 61.742188 35.242188 61.742188 35.242188 L 61.054688 35.203125 L 60.796875 34.90625 L 60.703125 34.257812 C 60.703125 34.257812 60.40625 34.039062 60.316406 33.90625 C 60.222656 33.777344 59.796875 33.683594 59.796875 33.683594 L 59.183594 33.074219 L 58.757812 32.777344 C 58.757812 32.777344 58.628906 32.816406 58.464844 32.816406 C 58.296875 32.816406 57.980469 32.90625 57.980469 32.90625 L 57.5 32.777344 L 57.277344 32.425781 L 56.925781 32.128906 L 56.628906 31.609375 L 56.332031 31.519531 L 56.425781 30.777344 L 56.074219 30.777344 L 55.460938 29.832031 L 55.5 30.351562 L 55.242188 30.609375 L 54.980469 30.960938 L 54.777344 30.960938 L 54.683594 30.40625 L 54.332031 30.277344 L 54.203125 29.757812 L 54.425781 29.238281 L 54.554688 28.722656 L 54.386719 28.296875 L 54.167969 27.90625 L 54.035156 27.554688 L 53.945312 27.074219 L 53.554688 26.945312 L 53.648438 26.128906 L 53.128906 25.738281 L 53.351562 25.441406 L 53.351562 24.664062 L 52.609375 24.5 L 52.980469 24.257812 L 53.425781 23.8125 L 54.648438 23.8125 L 54.648438 24.515625 L 55.167969 25.222656 L 56.316406 24.515625 L 57.277344 24.515625 L 58.074219 23.460938 L 58.074219 22.589844 L 57.203125 21.886719 L 57.460938 20.832031 C 57.460938 20.832031 56.851562 20.40625 56.59375 20.40625 C 56.332031 20.40625 55.519531 19.851562 55.519531 19.851562 L 55.480469 18.421875 L 56.257812 18.203125 L 56 17.980469 L 55.648438 16.941406 L 55.535156 16.347656 L 58.074219 16.347656 L 58.074219 15.480469 L 58.480469 14.886719 L 58.574219 14.257812 L 59.480469 14.257812 L 59.480469 13.3125 L 60.628906 12.960938 L 61.242188 11.738281 L 61.242188 10.683594 L 61.761719 9.8125 L 61.761719 9.109375 L 61.316406 8.3125 L 60.613281 7.867188 L 60.445312 7.347656 L 58.332031 7.347656 L 58.167969 6.902344 L 57.371094 6.902344 L 56.5 7.253906 L 54.3125 7.253906 C 54.3125 7.253906 53.960938 7.347656 53.703125 7.421875 C 53.445312 7.515625 52.554688 7.941406 52.554688 7.941406 L 51.5 8.386719 L 50.351562 8.476562 L 49.292969 8.738281 L 48.425781 8.570312 L 49.386719 7.867188 L 48.425781 7.253906 L 46.925781 6.457031 L 45.886719 4.976562 L 45.183594 4.976562 C 45.183594 4.976562 45.183594 4.53125 44.832031 4.273438 C 44.480469 4.015625 43.609375 3.570312 43.609375 3.570312 L 42.8125 3.050781 L 42.8125 2.347656 L 42.292969 1.902344 L 41.683594 1.457031 L 40.980469 1.457031 L 40.980469 0.511719 L 39.832031 0.511719 L 39.21875 0.160156 L 36.238281 0.160156 L 35.273438 0.511719 L 33.867188 0.605469 L 33.867188 1.21875 L 33.421875 1.570312 L 32.367188 1.125 L 31.3125 0.957031 L 30.089844 2.015625 L 29.21875 2.53125 L 28.867188 2.976562 L 27.902344 3.679688 L 27.902344 4.976562 L 28.867188 5.328125 L 30.367188 5.238281 L 30.71875 6.457031 L 31.515625 7.070312 L 33.179688 7.421875 L 33.015625 7.867188 L 32.664062 8.664062 L 34.070312 9.273438 L 34.328125 9.71875 L 33.8125 10.867188 L 32.496094 11.21875 L 32.328125 12.089844 L 31.273438 12.183594 L 31.441406 13.050781 L 31.441406 15.773438 L 31.53125 17.535156 L 31.367188 19.035156 C 31.367188 19.035156 30.847656 19.554688 31.367188 19.90625 C 31.886719 20.257812 32.515625 20.609375 32.515625 20.609375 L 33.570312 20.960938 L 34.441406 21.40625 L 34.535156 21.925781 L 35.328125 22.015625 L 36.125 21.664062 L 35.960938 23.074219 L 36.757812 23.425781 L 37.367188 23.683594 L 38.238281 24.035156 L 39.199219 24.203125 L 38.847656 25.257812 L 38.332031 25.960938 L 36.664062 25.960938 L 36.273438 26.460938 C 36.273438 26.460938 35.625 26.683594 35.273438 27.035156 C 34.921875 27.386719 34.921875 27.386719 34.921875 27.386719 L 35.347656 28.460938 L 34.921875 28.886719 L 35.570312 28.886719 C 35.570312 28.886719 34.996094 29.3125 34.996094 29.683594 C 34.996094 30.035156 34.921875 30.480469 34.921875 30.480469 L 35.496094 30.480469 C 35.496094 30.480469 35.792969 31.019531 35.570312 31.019531 C 35.347656 31.019531 35.347656 31.019531 35.347656 31.019531 L 34.609375 31.480469 L 33.738281 32.054688 L 33.515625 32.574219 L 32.941406 33.09375 C 32.53125 33.445312 32.253906 33.777344 32.253906 33.777344 L 31.679688 33.777344 L 32.089844 34.128906 L 31.679688 34.128906 L 31.847656 34.703125 L 31.679688 35.054688 L 31.679688 35.574219 L 31.050781 36.039062 L 30.699219 36.5 C 30.699219 36.5 30.238281 36.390625 29.957031 36.5 C 29.664062 36.613281 29.328125 36.148438 29.164062 36.5 C 28.996094 36.851562 28.867188 37.371094 28.867188 37.371094 L 28.015625 39.667969 C 28.015625 39.667969 27.03125 40.464844 26.921875 40.816406 C 26.808594 41.167969 26.457031 41.5 26.125 41.6875 C 25.773438 41.851562 24.570312 42.425781 24.570312 42.425781 C 24.570312 42.425781 23.253906 43.058594 23.199219 43.355469 C 23.144531 43.648438 23.144531 43.648438 23.144531 43.648438 C 23.144531 43.648438 23.03125 44.742188 22.847656 44.742188 C 22.660156 44.742188 21.753906 45.371094 21.753906 45.371094 C 21.753906 45.371094 21.289062 46.632812 20.957031 46.816406 C 20.605469 46.984375 19.921875 46.59375 19.011719 46.816406 C 18.085938 47.039062 17.402344 47.113281 17.125 47.28125 C 16.828125 47.445312 15.753906 47.964844 15.566406 47.28125 C 15.402344 46.59375 15.269531 46.019531 15.269531 46.019531 C 15.269531 46.019531 14.808594 45.148438 13.828125 45.613281 C 12.84375 46.074219 12.898438 46.539062 12.84375 46.707031 C 12.789062 46.871094 12.105469 47.632812 12.105469 47.632812 C 12.105469 47.632812 11.882812 48.152344 11.234375 48.613281 C 10.605469 49.078125 10.085938 49.019531 9.789062 49.59375 C 9.492188 50.167969 9.734375 50.335938 9.492188 50.6875 C 9.269531 51.039062 8.566406 50.742188 9.140625 51.429688 C 9.714844 52.113281 10.011719 52.113281 10.289062 52.355469 C 10.585938 52.578125 10.917969 53.039062 10.917969 53.039062 C 10.917969 53.039062 12.066406 52.578125 12.234375 53.335938 C 12.398438 54.078125 12.53125 53.964844 12.289062 54.484375 C 12.066406 55.003906 11.769531 55.226562 11.769531 55.226562 L 11.753906 56.28125 L 12.046875 56.632812 L 12.179688 57.058594 C 12.179688 57.058594 11.957031 57.539062 12.4375 57.671875 C 12.917969 57.800781 14.289062 57.800781 14.289062 57.929688 C 14.289062 58.058594 13.992188 58.929688 14.195312 59.261719 C 14.417969 59.617188 15.066406 60.949219 15.195312 61.207031 C 15.328125 61.46875 16.402344 63.191406 16.402344 63.191406 C 16.402344 63.191406 16.753906 63.484375 16.402344 63.484375 C 16.050781 63.484375 15.84375 63.707031 15.84375 63.707031 C 15.84375 63.707031 16.066406 63.96875 16.011719 64.191406 C 15.976562 64.414062 15.789062 64.449219 15.753906 64.578125 C 15.714844 64.707031 15.882812 64.746094 15.882812 64.746094 L 16.492188 64.746094 L 15.9375 65.265625 C 15.9375 65.265625 15.328125 64.78125 15.253906 65.265625 C 15.160156 65.746094 14.476562 65.820312 14.476562 65.820312 L 13.660156 65.429688 L 13.660156 64.617188 L 12.457031 64.707031 C 12.457031 64.707031 12.363281 64.929688 12.234375 64.929688 L 11.621094 64.929688 C 11.457031 64.929688 10.679688 65.542969 10.679688 65.542969 L 9.34375 65.542969 L 8.601562 64.671875 L 7.472656 64.632812 L 7.175781 64.765625 L 6.917969 64.671875 L 6.4375 64.671875 L 6.046875 64.707031 C 6.046875 64.707031 5.917969 64.414062 5.621094 64.578125 C 5.324219 64.746094 5.195312 64.226562 5.195312 64.226562 L 4.804688 64.652344 L 4.804688 64.003906 L 4.511719 64.003906 L 4.085938 65.820312 L 1.992188 65.820312 L 1.601562 66.117188 L 1.25 66.117188 L 0.898438 66.800781 L 0.695312 67.152344 L 0.695312 67.636719 C 0.695312 67.636719 1.378906 67.671875 1.566406 67.636719 C 1.730469 67.597656 1.789062 66.988281 1.953125 66.949219 C 2.121094 66.914062 2.640625 66.988281 2.640625 66.988281 L 3.585938 66.46875 L 3.417969 66.894531 L 2.9375 67.246094 L 2.195312 67.652344 L 2.101562 68.117188 L 1.992188 68.488281 C 1.992188 68.488281 2.675781 68.265625 2.25 68.875 C 2.25 68.875 2.730469 68.523438 2.730469 68.875 C 2.730469 69.226562 2.511719 69.523438 2.511719 69.523438 L 3.027344 69.226562 L 3.027344 70.136719 L 3.195312 70.5625 C 3.195312 70.5625 3.621094 70.914062 3.878906 71.042969 C 4.140625 71.171875 5.472656 71.914062 5.601562 72.210938 C 5.734375 72.507812 6.121094 72.210938 6.289062 72.433594 C 6.453125 72.65625 6.585938 72.988281 6.585938 72.988281 C 6.585938 72.988281 6.882812 72.597656 7.269531 72.691406 C 7.660156 72.785156 8.308594 73.082031 8.4375 72.988281 C 8.566406 72.894531 9.121094 72.691406 9.121094 72.691406 L 9.605469 72.5625 L 9.824219 72.171875 L 10.640625 72.171875 L 10.546875 71.933594 L 10.457031 71.691406 L 10.679688 71.394531 L 11.066406 72.007812 L 11.417969 71.226562 L 11.84375 71.394531 L 12.195312 71.523438 L 12.03125 72.210938 L 11.546875 72.726562 L 11.546875 73.007812 L 10.992188 73.542969 L 10.605469 73.933594 L 10.566406 74.320312 L 8.9375 74.320312 L 9.234375 74.582031 L 8.546875 75.136719 L 8.289062 74.785156 L 7.863281 74.875 L 7.863281 75.136719 L 7.472656 75.304688 L 7.25 75.007812 L 6.640625 75.097656 L 6.640625 75.320312 L 6.214844 75.15625 L 5.566406 75.320312 L 5.175781 75.582031 L 5.085938 75.15625 L 5.378906 74.730469 L 4.695312 74.765625 L 4.472656 74.671875 L 4.824219 74.285156 L 4.4375 74.191406 C 4.4375 74.191406 4.175781 74.414062 4.140625 74.542969 C 4.101562 74.671875 3.75 75.097656 4.101562 75.582031 C 4.453125 76.0625 7.085938 79.453125 7.085938 79.453125 L 7.734375 80.007812 L 7.992188 80.007812 L 8.085938 80.859375 L 10.492188 83.0625 L 11.179688 83.675781 L 12.308594 84.191406 L 14.382812 84.191406 L 15.195312 83.839844 L 15.679688 83.839844 L 16.234375 83.453125 L 16.492188 83.285156 L 16.976562 83.15625 C 16.976562 83.15625 17.269531 83.191406 17.402344 83.191406 C 17.53125 83.191406 17.917969 82.933594 17.917969 82.933594 C 17.917969 82.933594 18.53125 82.804688 18.699219 82.675781 C 18.863281 82.542969 19.085938 82.285156 19.085938 82.285156 L 19.347656 82.285156 L 19.4375 81.859375 L 20.085938 81.210938 C 20.085938 81.210938 20.4375 80.859375 20.4375 80.691406 C 20.4375 80.527344 20.4375 80.007812 20.4375 80.007812 L 20.734375 79.785156 L 20.566406 78.914062 L 20.476562 78.488281 L 20.996094 77.710938 L 20.605469 77.488281 L 20.828125 77.097656 L 21.214844 77.230469 L 21.476562 77.230469 L 21.734375 77.0625 L 21.347656 76.894531 L 21.699219 76.636719 L 22.179688 76.730469 C 22.179688 76.730469 22.921875 77.15625 23.050781 77.15625 C 23.179688 77.15625 23.996094 76.894531 23.996094 76.894531 L 23.511719 77.414062 L 22.957031 77.453125 L 22.214844 77.097656 L 21.734375 77.785156 L 22.03125 77.914062 L 21.9375 78.210938 L 21.902344 78.5625 L 22.289062 78.65625 L 22.808594 78.433594 L 23.199219 78.527344 L 22.976562 78.878906 L 22.550781 78.878906 L 21.9375 78.96875 L 21.847656 79.617188 L 21.714844 80.007812 L 22.625 80.230469 L 21.847656 80.394531 L 21.9375 80.75 L 22.289062 80.617188 L 22.902344 80.359375 L 22.421875 81.101562 L 22.125 81.230469 L 22.085938 81.617188 L 22.050781 81.878906 L 21.863281 82.0625 L 21.976562 82.339844 L 21.9375 82.710938 L 22.457031 82.824219 L 22.085938 83.136719 L 22.773438 83.136719 L 22.363281 83.378906 L 22.4375 83.824219 L 22.957031 83.824219 L 22.996094 84.027344 L 22.625 84.191406 L 22.585938 84.433594 L 22.714844 84.636719 L 23.160156 84.636719 L 23.085938 84.953125 L 22.734375 84.953125 L 22.570312 85.914062 L 22.457031 86.230469 L 22.496094 86.398438 L 22.382812 86.601562 L 22.179688 86.769531 L 21.976562 87.210938 L 21.625 87.378906 L 21.550781 87.65625 L 21.679688 87.859375 L 21.402344 87.988281 L 21.273438 88.34375 L 21.550781 88.898438 L 21.140625 88.695312 L 21.066406 88.898438 C 21.066406 88.898438 21.382812 89.027344 21.382812 89.136719 C 21.382812 89.25 21.105469 89.492188 21.105469 89.492188 L 21.105469 89.730469 L 21.066406 89.933594 L 21.179688 90.101562 L 21.179688 90.34375 C 21.179688 90.34375 21.140625 90.453125 21.066406 90.582031 C 20.996094 90.710938 20.957031 90.992188 20.957031 90.992188 L 21.234375 90.992188 L 21.4375 90.785156 L 21.714844 90.992188 L 21.402344 91.195312 L 21.125 91.433594 L 21.253906 91.640625 L 21.253906 92.007812 L 21.902344 92.140625 L 21.179688 92.378906 L 21.308594 93.140625 C 21.308594 93.140625 21.585938 93.34375 21.679688 93.34375 C 21.789062 93.34375 22.03125 93.34375 22.03125 93.34375 L 21.789062 93.824219 L 21.550781 94.34375 L 22.070312 94.546875 L 22.105469 94.75 C 22.105469 94.75 21.996094 94.714844 21.863281 94.75 C 21.734375 94.789062 21.550781 94.75 21.550781 94.75 L 21.347656 94.769531 C 21.347656 94.769531 21.308594 95.027344 21.308594 95.195312 C 21.308594 95.363281 21.550781 95.878906 21.550781 95.878906 L 21.660156 96.195312 L 21.382812 96.195312 L 21.457031 96.992188 L 21.699219 96.992188 L 21.625 97.4375 L 22.070312 97.4375 L 21.996094 97.675781 L 21.4375 97.675781 L 21.363281 97.878906 L 21.714844 97.878906 L 21.640625 98.363281 L 21.714844 98.734375 L 21.753906 99.046875 L 21.957031 99.046875 L 21.753906 99.289062 L 21.753906 99.660156 L 22.105469 99.972656 L 22.179688 100.289062 L 22.105469 101.046875 L 22.511719 101.175781 L 22.199219 101.417969 L 22.4375 101.9375 L 22.402344 102.25 L 22.199219 102.660156 L 22.550781 102.660156 L 22.4375 102.863281 L 22.308594 103.066406 L 22.511719 103.308594 L 22.679688 103.308594 L 22.4375 103.585938 L 22.328125 103.75 L 22.496094 103.882812 L 22.53125 104.160156 L 22.363281 104.160156 L 22.402344 104.4375 L 22.679688 104.4375 L 22.679688 104.640625 L 22.402344 104.640625 L 22.570312 104.992188 L 22.496094 106.640625 L 22.734375 106.882812 L 22.699219 107.714844 L 22.902344 108.195312 L 22.828125 108.753906 L 23.070312 109.03125 L 22.789062 109.4375 L 23.03125 109.679688 L 23.347656 109.917969 L 23.699219 110.957031 L 24.21875 112.125 L 24.496094 112.4375 L 24.734375 112.4375 L 24.382812 112.753906 L 24.9375 113.308594 L 25.105469 113.660156 C 25.105469 113.660156 25.179688 114.140625 25.105469 114.253906 C 25.03125 114.363281 25.03125 114.363281 25.03125 114.363281 L 25.625 115.476562 L 25.902344 115.847656 L 25.53125 116.011719 C 25.53125 116.011719 25.21875 116.125 25.328125 116.179688 C 25.4375 116.253906 25.734375 116.53125 25.734375 116.53125 L 26.050781 116.363281 L 26.179688 116.714844 L 26.550781 116.714844 L 26.753906 117.273438 L 26.867188 117.71875 L 27.21875 117.957031 L 27.085938 118.234375 L 27.253906 118.71875 L 27.421875 118.996094 L 27.496094 119.367188 L 27.496094 119.679688 L 27.328125 120.03125 C 27.328125 120.03125 28.050781 120.753906 28.160156 121.070312 C 28.273438 121.382812 28.125 121.996094 28.125 121.996094 L 28.53125 121.996094 C 28.53125 121.996094 28.644531 122.234375 28.53125 122.234375 C 28.421875 122.234375 28.421875 122.234375 28.421875 122.234375 C 28.421875 122.234375 28.382812 122.589844 28.382812 122.679688 C 28.382812 122.773438 28.457031 123.164062 28.457031 123.164062 L 28.382812 123.476562 L 28.03125 123.71875 L 28.347656 123.957031 L 28.71875 124.679688 L 28.644531 125.996094 L 28.847656 125.996094 L 28.957031 126.199219 C 28.957031 126.199219 29.089844 126.828125 29.125 126.921875 C 29.164062 127.035156 29.53125 128.238281 29.53125 128.238281 L 29.882812 128.867188 L 30.367188 130.902344 L 30.53125 131.535156 L 30.976562 131.699219 L 31.179688 131.941406 L 31.457031 131.941406 L 31.179688 132.257812 L 31.53125 132.625 L 32.015625 132.980469 L 32.292969 133.292969 L 32.605469 133.496094 L 32.71875 134.125 C 32.71875 134.125 32.792969 134.292969 32.792969 134.480469 C 32.792969 134.644531 32.792969 134.847656 32.792969 134.847656 L 32.996094 134.847656 L 33.402344 135.40625 L 33.570312 135.40625 L 33.570312 136.238281 L 33.941406 136.238281 L 33.589844 136.554688 L 34.035156 137.480469 L 34.105469 138.164062 L 34.21875 138.609375 L 34.273438 138.832031 L 34.476562 138.554688 L 34.71875 138.832031 L 34.609375 139.070312 L 34.328125 139.203125 L 34.328125 139.480469 L 34.570312 139.832031 L 34.976562 140.109375 L 34.976562 140.515625 C 34.976562 140.515625 35.089844 141.074219 35.089844 141.203125 C 35.089844 141.332031 35.402344 141.722656 35.402344 141.722656 L 35.515625 141.480469 L 35.792969 141.722656 L 35.71875 142.035156 L 35.441406 142.035156 L 35.515625 142.441406 C 35.515625 142.441406 35.402344 142.757812 35.625 142.8125 C 35.828125 142.886719 36.144531 143.183594 36.144531 143.183594 L 36.386719 143.535156 L 36.347656 144.015625 L 36.386719 144.425781 L 36.460938 144.589844 L 36.570312 145.183594 L 36.847656 145.183594 L 37.015625 145.425781 L 36.738281 145.425781 L 36.21875 145.296875 L 36.089844 144.425781 L 36.015625 143.738281 L 35.847656 143.296875 L 35.886719 145.222656 L 36.050781 145.980469 L 36.402344 146.738281 L 36.535156 147.222656 C 36.535156 147.222656 36.738281 147.351562 36.773438 147.628906 C 36.8125 147.90625 36.847656 148.222656 36.847656 148.222656 L 36.921875 148.535156 L 37.273438 148.296875 L 37.515625 148.296875 L 37.589844 148.535156 L 37.21875 148.777344 L 37.183594 149.054688 L 37.773438 149.054688 L 37.738281 149.296875 L 37.570312 149.574219 L 38.089844 150.296875 L 38.644531 150.816406 C 38.644531 150.816406 39.015625 151.167969 39.199219 151.371094 C 39.367188 151.574219 39.792969 152.203125 39.792969 152.203125 C 39.792969 152.203125 39.960938 152.445312 40.238281 152.648438 C 40.515625 152.851562 40.996094 153.09375 40.996094 153.09375 L 41.644531 153.296875 C 41.644531 153.296875 42.203125 153.183594 42.292969 153.296875 C 42.40625 153.40625 42.570312 153.257812 42.664062 153.296875 C 42.773438 153.332031 42.90625 153.054688 42.90625 153.054688 L 43.421875 153.019531 L 43.792969 152.777344 L 44.035156 152.257812 C 44.035156 152.257812 44.386719 152.257812 44.480469 152.222656 C 44.589844 152.183594 45.070312 152.054688 45.070312 152.054688 L 45.515625 151.425781 L 45.515625 150.980469 L 45.628906 150.667969 C 45.628906 150.667969 45.703125 150.390625 45.792969 150.296875 C 45.90625 150.183594 45.960938 150.019531 45.960938 150.019531 L 46 148.777344 L 46.515625 148.460938 L 46.886719 148.5 L 47.164062 148.148438 C 47.441406 147.945312 48.203125 147.777344 48.332031 147.777344 C 48.460938 147.777344 48.535156 147.738281 48.703125 147.738281 C 48.867188 147.738281 48.90625 147.574219 48.90625 147.574219 L 49.5 147.371094 L 50.183594 147.296875 L 50.554688 147.296875 L 51.035156 147.371094 L 51.445312 147.371094 L 51.796875 147.5 L 52.074219 147.5 L 52.757812 147.90625 L 52.796875 147.554688 L 52.425781 147.445312 L 52.351562 147.09375 L 52 147.128906 L 51.371094 147.128906 L 51.015625 147.054688 L 50.371094 146.777344 L 50.054688 146.332031 L 50.015625 145.777344 L 50.148438 145.425781 L 50.90625 144.386719 L 51.386719 143.738281 L 51.796875 143.332031 L 52.109375 143.128906 C 52.109375 143.128906 51.980469 143 51.980469 142.851562 C 51.980469 142.703125 52.148438 142.332031 52.148438 142.332031 L 52.386719 141.8125 L 52.871094 141.777344 L 53.664062 141.777344 L 53.703125 141.5 L 54.59375 141.609375 L 54.832031 141.609375 L 55.148438 141.683594 L 55.109375 141.886719 L 55.351562 141.574219 L 55.109375 135.496094 C 55.109375 135.496094 54.945312 134.980469 54.945312 134.867188 C 54.945312 134.757812 54.945312 134.757812 54.980469 134.515625 C 55.019531 134.273438 55.054688 133.867188 55.054688 133.757812 C 55.054688 133.644531 55.460938 132.683594 55.460938 132.683594 L 55.5 132.40625 L 55.296875 132.164062 L 55.296875 131.921875 L 55.742188 132.164062 L 55.777344 131.609375 L 56.371094 131.125 L 56.851562 130.535156 L 56.742188 130.015625 L 57.222656 129.699219 L 57.332031 129.386719 L 57.5 128.828125 L 57.703125 128.421875 L 57.667969 127.3125 L 57.796875 126.71875 L 57.90625 126.125 L 58.019531 125.664062 L 57.703125 124.941406 L 57.148438 124.53125 L 57.074219 123.808594 L 56.960938 123.328125 L 56.960938 122.734375 L 57.167969 122.734375 L 57.296875 123.144531 L 57.296875 123.457031 L 57.425781 123.808594 L 57.59375 124.292969 L 57.757812 124.699219 L 58 124.699219 C 58 124.699219 57.925781 124.457031 57.890625 124.347656 C 57.851562 124.238281 57.777344 123.71875 57.777344 123.71875 L 57.703125 123.164062 L 57.628906 122.515625 L 57.554688 122.03125 C 57.554688 122.03125 57.480469 121.589844 57.480469 121.441406 C 57.480469 121.292969 57.40625 120.996094 57.40625 120.882812 C 57.40625 120.773438 57.277344 120.476562 57.277344 120.476562 L 57.554688 119.847656 C 57.554688 119.847656 57.722656 119.773438 57.722656 119.570312 C 57.722656 119.367188 57.683594 118.773438 57.722656 118.679688 C 57.757812 118.570312 57.851562 118.363281 57.722656 118.160156 C 57.59375 117.957031 57.351562 117.050781 57.351562 117.050781 L 57.222656 116.179688 L 57.5 115.140625 L 58.183594 113.828125 L 58.554688 113.347656 L 58.925781 112.417969 L 59.574219 112.417969 L 60.019531 112.066406 L 60.90625 111.992188 L 61.019531 112.917969 L 61.1875 112.679688 L 61.257812 112.992188 L 61.425781 112.917969 L 61.5 112.625 L 61.59375 112.273438 L 61.742188 112.714844 L 61.980469 112.679688 L 61.980469 112.273438 L 62.574219 111.863281 L 62.925781 111.382812 L 63.09375 110.976562 L 63.296875 110.769531 L 63.539062 110.125 L 63.703125 110.011719 L 64.351562 109.9375 C 64.351562 109.9375 64.519531 110.011719 64.59375 109.902344 C 64.667969 109.789062 64.59375 109.625 64.59375 109.625 L 65 109.585938 L 65.519531 109.9375 L 65.722656 109.769531 L 65.722656 110.085938 L 66 110.125 L 66.558594 109.992188 L 67.074219 109.679688 L 67.351562 109.511719 L 68.464844 109.066406 L 68.632812 108.753906 L 68.632812 107.863281 L 68.5 107.546875 L 68.464844 107.066406 L 68.816406 106.863281 L 68.816406 107.734375 L 69.167969 107.179688 L 69.167969 106.828125 L 68.816406 106.472656 L 69.410156 106.195312 L 70.058594 105.640625 L 70.574219 105.289062 L 71.019531 104.808594 L 72.058594 104.324219 C 72.058594 104.324219 72.464844 104.195312 72.707031 104.121094 C 72.945312 104.046875 73.222656 103.957031 73.222656 103.957031 L 73.222656 103.675781 L 73.742188 103.398438 C 73.742188 103.398438 73.871094 103.046875 73.945312 102.957031 C 74.019531 102.84375 75.019531 101.882812 75.78125 101.4375 C 76.539062 100.992188 77.652344 100.195312 77.652344 100.195312 L 78.003906 99.917969 L 78.003906 99.324219 C 78.003906 99.324219 79.113281 98.84375 79.375 98.601562 C 79.652344 98.363281 79.726562 97.917969 79.726562 97.917969 L 80.039062 97.472656 L 80.316406 97.121094 L 80.949219 96.601562 L 81.078125 96.324219 L 81.078125 96.046875 L 81.632812 95.601562 C 81.632812 95.601562 82.1875 94.601562 82.261719 94.492188 C 82.335938 94.378906 83.300781 93.84375 83.300781 93.84375 L 83.984375 93.289062 L 84.542969 93.007812 L 84.984375 92.804688 L 86.058594 92.398438 L 87.335938 91.878906 C 87.335938 91.878906 88.132812 91.769531 88.449219 91.640625 C 88.765625 91.507812 89.207031 91.359375 89.339844 91.082031 C 89.46875 90.804688 89.449219 90.082031 89.746094 90.082031 C 90.058594 90.082031 90.46875 89.972656 90.578125 89.917969 C 90.691406 89.84375 91.097656 89.5625 91.097656 89.5625 L 91.300781 89.121094 L 91.300781 88.75 L 91.0625 88.433594 L 92.414062 87.5625 L 92.726562 86.933594 C 92.726562 86.933594 92.488281 87.101562 92.355469 87.136719 C 92.226562 87.175781 91.949219 87.34375 91.949219 87.34375 L 91.503906 87.414062 L 91.578125 86.933594 L 92.136719 86.859375 C 92.136719 86.859375 92.414062 86.859375 92.375 86.65625 C 92.339844 86.453125 92.0625 86.136719 92.003906 86.007812 C 91.929688 85.878906 91.726562 85.359375 91.726562 85.359375 L 91.929688 84.191406 C 91.929688 84.191406 92.375 83.359375 92.765625 83.191406 C 93.136719 83.027344 93.875 82.75 93.875 82.75 L 94.597656 82.824219 L 95.359375 82.210938 L 96.226562 81.96875 L 96.523438 81.433594 L 96.820312 81.210938 C 96.820312 81.210938 97.042969 80.730469 97.210938 80.65625 C 97.375 80.5625 97.636719 80.359375 97.636719 80.359375 L 97.859375 79.839844 L 98.191406 79.914062 L 97.988281 79.027344 L 98.320312 78.785156 L 98.46875 79.675781 L 98.300781 80.320312 L 98.265625 80.75 L 98.488281 81.007812 L 98.488281 81.304688 L 98.839844 80.914062 L 99.136719 80.65625 L 99.617188 80.953125 L 99.839844 80.691406 L 100.097656 79.582031 L 100.765625 79.636719 C 100.765625 79.636719 100.949219 79.101562 101.117188 79.15625 C 101.285156 79.191406 101.414062 78.839844 101.414062 78.839844 L 101.691406 78.710938 L 102.117188 78.746094 L 102.265625 78.914062 L 102.433594 79.191406 L 102.46875 79.304688 C 102.507812 79.0625 101.953125 78.042969 102.15625 77.914062 C 102.15625 77.914062 102.171875 77.414062 102.097656 77.339844 C 102.023438 77.265625 101.710938 76.617188 101.710938 76.617188 L 101.582031 76.082031 L 101.636719 75.671875 L 101.65625 75.449219 L 101.265625 74.859375 L 101.265625 74.375 L 101.804688 73.691406 L 101.414062 73.542969 L 100.96875 73.5625 L 100.839844 73.730469 L 100.617188 73.785156 L 100.542969 72.914062 L 100.710938 72.523438 L 100.804688 72.359375 L 100.710938 72.152344 L 100.191406 71.949219 L 99.933594 71.691406 L 99.785156 71.839844 L 99.765625 70.46875 L 100.230469 70.394531 L 100.488281 69.839844 L 100.730469 69.523438 L 100.746094 69.117188 L 100.617188 68.671875 L 100.46875 68.285156 L 100.246094 68.136719 L 99.65625 68.078125 L 99.136719 67.914062 L 98.523438 67.914062 L 98.523438 67.671875 L 98.0625 67.300781 L 97.652344 67.136719 L 97.523438 66.765625 C 97.523438 66.765625 97.46875 66.636719 97.394531 66.636719 C 97.320312 66.636719 97.0625 66.320312 97.0625 66.320312 C 97.0625 66.320312 97.210938 66.097656 97.285156 66.023438 C 97.359375 65.949219 97.523438 65.617188 97.523438 65.617188 L 97.507812 64.78125 L 98.265625 64.800781 L 98.285156 65.171875 L 98.691406 65.226562 L 98.488281 64.988281 L 98.507812 64.765625 L 98.839844 64.820312 L 98.914062 64.488281 L 99.171875 64.46875 L 99.15625 63.707031 L 100.671875 63.632812 L 100.671875 63.484375 L 101.339844 63.484375 L 101.507812 63.265625 L 101.523438 62.96875 L 101.582031 62.597656 L 101.320312 62.542969 L 101.265625 62.839844 L 101.117188 62.894531 L 100.820312 62.558594 L 100.433594 61.707031 C 100.433594 61.707031 100.285156 62.503906 99.582031 62.171875 C 98.875 61.835938 98.914062 61.578125 98.914062 61.578125 L 98.839844 61.042969 L 98.136719 60.652344 L 97.359375 60.632812 L 97.375 59.707031 L 97.636719 59.410156 L 97.617188 59.207031 L 97.597656 58.835938 L 98.265625 58.375 L 98.5625 58.113281 L 98.617188 57.800781 L 98.710938 57.671875 L 99.117188 57.613281 L 99.0625 57.226562 L 98.691406 57.171875 L 98.523438 56.964844 L 98.359375 56.652344 L 98.339844 56.503906 L 98.582031 56.097656 L 98.949219 56.761719 L 99.285156 56.820312 L 99.285156 57.132812 L 99.730469 57.113281 L 99.671875 57.355469 L 100.0625 57.410156 L 100.117188 57.820312 L 99.988281 58.023438 L 99.894531 58.246094 L 100.265625 58.246094 L 100.523438 58.003906 L 100.894531 57.910156 L 101.097656 58.078125 L 101.5625 58.097656 L 101.191406 57.503906 L 100.933594 57.1875 L 101.0625 57.097656 L 101.582031 57.078125 L 101.582031 57.300781 L 101.894531 57.429688 L 102.023438 57.578125 L 102.023438 58.355469 C 102.023438 58.355469 102.933594 59.1875 103.171875 59.1875 C 103.414062 59.1875 104.101562 59.246094 104.101562 59.246094 L 104.304688 58.910156 L 104.304688 58.6875 L 104.527344 58.375 L 104.785156 58.132812 L 105.265625 58.335938 L 105.359375 58.820312 L 105.285156 59.132812 L 105.601562 59.429688 L 105.507812 59.820312 L 105.433594 60.191406 L 105.582031 60.597656 L 105.507812 61.910156 L 105.5625 62.449219 L 105.894531 62.617188 C 105.894531 62.617188 106.5625 62.632812 106.636719 62.691406 C 106.710938 62.746094 107.117188 63.003906 107.117188 63.003906 L 107.675781 63.097656 L 108.136719 63.226562 L 111.824219 63.300781 C 111.824219 63.300781 112.488281 63.523438 112.601562 63.320312 C 112.730469 63.117188 112.933594 63.117188 113.136719 63.226562 C 113.34375 63.320312 113.34375 63.429688 113.621094 63.355469 C 113.917969 63.28125 114.0625 63.449219 114.0625 63.449219 L 114.804688 63.429688 L 114.824219 63.265625 L 116.953125 63.246094 L 117.417969 63.652344 L 118.15625 63.707031 L 118.289062 63.855469 L 118.269531 64.300781 L 118.75 64.355469 L 118.75 64.914062 L 118.304688 64.894531 L 117.546875 64.503906 L 117.492188 64.988281 L 117.75 65.191406 L 117.824219 65.414062 L 117.730469 65.617188 L 117.433594 65.875 L 117.378906 66.617188 L 116.785156 67.355469 L 116.582031 67.617188 L 116.285156 67.355469 L 116.066406 67.488281 L 116.007812 67.820312 L 115.878906 67.949219 L 115.878906 68.785156 L 115.398438 68.394531 L 115.195312 68.375 L 115.121094 68.617188 L 114.898438 68.636719 L 114.675781 68.339844 L 114.601562 68.578125 L 114.453125 68.839844 L 114.195312 69.042969 L 113.5625 69.023438 L 113.324219 69.042969 L 113.453125 69.488281 L 112.785156 69.617188 L 112.933594 70.320312 L 112.5625 70.691406 L 112.507812 71.078125 L 112.878906 71.210938 L 112.804688 71.765625 L 113.195312 72.171875 L 113.175781 72.582031 L 113.15625 72.820312 L 113.378906 73.136719 L 113.359375 73.988281 C 113.359375 73.988281 113.65625 74.191406 113.675781 74.117188 C 113.695312 74.042969 113.675781 73.246094 113.675781 73.246094 L 113.804688 73.042969 C 113.804688 73.042969 114.121094 72.949219 114.136719 73.136719 C 114.15625 73.339844 114.210938 73.449219 114.210938 73.449219 L 114.269531 74.285156 C 114.269531 74.285156 114.324219 74.414062 114.601562 74.507812 C 114.898438 74.597656 115.121094 74.710938 115.285156 74.488281 C 115.453125 74.265625 115.527344 74.320312 115.546875 74.023438 C 115.566406 73.730469 115.378906 73.285156 115.378906 73.230469 C 115.378906 73.15625 115.359375 72.894531 115.359375 72.894531 L 115.65625 72.507812 L 115.917969 72.097656 L 116.175781 72.082031 L 116.082031 71.671875 L 115.992188 71.339844 L 116.007812 70.671875 C 116.007812 70.671875 116.269531 70.617188 116.304688 70.96875 C 116.324219 71.300781 116.601562 71.097656 116.601562 71.097656 L 116.917969 70.839844 L 117.15625 70.765625 L 117.304688 70.894531 L 117.453125 70.726562 L 117.675781 70.414062 L 117.972656 70.46875 L 117.972656 70.933594 L 117.992188 71.246094 L 117.917969 72.007812 L 118.324219 72.300781 L 118.269531 73.96875 L 118.398438 74.339844 L 118.527344 74.804688 L 119.324219 76.542969 L 119.546875 77.210938 Z M 119.65625 78.65625 " fill-opacity="1" fill-rule="nonzero"/></g></g></g></g><g mask="url(#461a6441b9)"><g transform="matrix(1, 0, 0, 1, 160, 87)"><g clip-path="url(#e9261e8809)"><g clip-path="url(#775524a1d1)"><path fill="#046a38" d="M 24.761719 0.722656 L 25.03125 0.695312 L 25.277344 3.035156 L 25.007812 3.066406 Z M 24.761719 0.722656 " fill-opacity="1" fill-rule="nonzero"/></g><path fill="#046a38" d="M 22.019531 1.179688 L 22.285156 1.121094 L 22.773438 3.425781 L 22.507812 3.484375 Z M 22.019531 1.179688 " fill-opacity="1" fill-rule="nonzero"/><path fill="#046a38" d="M 19.335938 1.910156 L 19.59375 1.828125 L 20.320312 4.066406 L 20.0625 4.148438 Z M 19.335938 1.910156 " fill-opacity="1" fill-rule="nonzero"/><path fill="#046a38" d="M 16.742188 2.914062 L 16.988281 2.804688 L 17.945312 4.957031 L 17.699219 5.066406 Z M 16.742188 2.914062 " fill-opacity="1" fill-rule="nonzero"/><path fill="#046a38" d="M 11.9375 5.71875 L 12.15625 5.558594 L 13.542969 7.464844 L 13.324219 7.625 Z M 11.9375 5.71875 " fill-opacity="1" fill-rule="nonzero"/><path fill="#046a38" d="M 9.796875 7.480469 L 10 7.300781 L 11.574219 9.050781 L 11.375 9.230469 Z M 9.796875 7.480469 " fill-opacity="1" fill-rule="nonzero"/><path fill="#046a38" d="M 7.835938 9.453125 L 8.015625 9.253906 L 9.765625 10.828125 L 9.585938 11.03125 Z M 7.835938 9.453125 " fill-opacity="1" fill-rule="nonzero"/><path fill="#046a38" d="M 6.097656 11.621094 L 6.257812 11.402344 L 8.160156 12.789062 L 8.003906 13.007812 Z M 6.097656 11.621094 " fill-opacity="1" fill-rule="nonzero"/><path fill="#046a38" d="M 3.339844 16.445312 L 3.449219 16.199219 L 5.601562 17.15625 L 5.492188 17.402344 Z M 3.339844 16.445312 " fill-opacity="1" fill-rule="nonzero"/><path fill="#046a38" d="M 2.359375 19.046875 L 2.441406 18.792969 L 4.679688 19.519531 L 4.597656 19.777344 Z M 2.359375 19.046875 " fill-opacity="1" fill-rule="nonzero"/><g clip-path="url(#aa9cb00f47)"><path fill="#046a38" d="M 1.652344 21.738281 L 1.707031 21.472656 L 4.011719 21.964844 L 3.953125 22.226562 Z M 1.652344 21.738281 " fill-opacity="1" fill-rule="nonzero"/></g><g clip-path="url(#e6e987f274)"><path fill="#046a38" d="M 1.230469 24.484375 L 1.257812 24.214844 L 3.601562 24.460938 L 3.574219 24.730469 Z M 1.230469 24.484375 " fill-opacity="1" fill-rule="nonzero"/></g><g clip-path="url(#f48cd2f782)"><path fill="#046a38" d="M 1.226562 29.773438 L 3.570312 29.527344 L 3.597656 29.796875 L 1.257812 30.042969 Z M 1.226562 29.773438 " fill-opacity="1" fill-rule="nonzero"/></g><g clip-path="url(#b2fb7f34f8)"><path fill="#046a38" d="M 1.660156 32.523438 L 3.960938 32.03125 L 4.019531 32.296875 L 1.714844 32.785156 Z M 1.660156 32.523438 " fill-opacity="1" fill-rule="nonzero"/></g><path fill="#046a38" d="M 2.363281 35.214844 L 4.601562 34.484375 L 4.683594 34.742188 L 2.445312 35.46875 Z M 2.363281 35.214844 " fill-opacity="1" fill-rule="nonzero"/><g clip-path="url(#43de4b9f9d)"><path fill="#046a38" d="M 3.339844 37.816406 L 5.492188 36.859375 L 5.601562 37.105469 L 3.449219 38.0625 Z M 3.339844 37.816406 " fill-opacity="1" fill-rule="nonzero"/></g><g clip-path="url(#fb6fe41146)"><path fill="#046a38" d="M 49.730469 37.105469 L 49.839844 36.859375 L 51.992188 37.816406 L 51.882812 38.066406 Z M 49.730469 37.105469 " fill-opacity="1" fill-rule="nonzero"/></g><path fill="#046a38" d="M 50.652344 34.734375 L 50.734375 34.480469 L 52.976562 35.207031 L 52.890625 35.464844 Z M 50.652344 34.734375 " fill-opacity="1" fill-rule="nonzero"/><path fill="#046a38" d="M 51.320312 32.300781 L 51.378906 32.039062 L 53.679688 32.527344 L 53.625 32.792969 Z M 51.320312 32.300781 " fill-opacity="1" fill-rule="nonzero"/><g clip-path="url(#e4b416d2ea)"><path fill="#046a38" d="M 51.726562 29.796875 L 51.753906 29.527344 L 54.097656 29.773438 L 54.070312 30.042969 Z M 51.726562 29.796875 " fill-opacity="1" fill-rule="nonzero"/></g><g clip-path="url(#2714928d46)"><path fill="#046a38" d="M 51.730469 24.476562 L 54.074219 24.230469 L 54.101562 24.496094 L 51.757812 24.746094 Z M 51.730469 24.476562 " fill-opacity="1" fill-rule="nonzero"/></g><path fill="#046a38" d="M 51.324219 21.972656 L 53.625 21.484375 L 53.683594 21.746094 L 51.378906 22.238281 Z M 51.324219 21.972656 " fill-opacity="1" fill-rule="nonzero"/><path fill="#046a38" d="M 50.65625 19.527344 L 52.894531 18.800781 L 52.980469 19.058594 L 50.738281 19.785156 Z M 50.65625 19.527344 " fill-opacity="1" fill-rule="nonzero"/><path fill="#046a38" d="M 49.730469 17.167969 L 51.882812 16.210938 L 51.992188 16.457031 L 49.84375 17.417969 Z M 49.730469 17.167969 " fill-opacity="1" fill-rule="nonzero"/><path fill="#046a38" d="M 47.171875 12.789062 L 49.078125 11.40625 L 49.234375 11.625 L 47.332031 13.007812 Z M 47.171875 12.789062 " fill-opacity="1" fill-rule="nonzero"/><path fill="#046a38" d="M 45.574219 10.835938 L 47.324219 9.261719 L 47.507812 9.460938 L 45.753906 11.039062 Z M 45.574219 10.835938 " fill-opacity="1" fill-rule="nonzero"/><path fill="#046a38" d="M 43.769531 9.054688 L 45.34375 7.304688 L 45.546875 7.488281 L 43.96875 9.238281 Z M 43.769531 9.054688 " fill-opacity="1" fill-rule="nonzero"/><path fill="#046a38" d="M 41.792969 7.472656 L 43.175781 5.566406 L 43.394531 5.726562 L 42.011719 7.632812 Z M 41.792969 7.472656 " fill-opacity="1" fill-rule="nonzero"/><path fill="#046a38" d="M 37.394531 4.960938 L 38.351562 2.808594 L 38.597656 2.917969 L 37.640625 5.070312 Z M 37.394531 4.960938 " fill-opacity="1" fill-rule="nonzero"/><path fill="#046a38" d="M 35.019531 4.066406 L 35.75 1.824219 L 36.003906 1.910156 L 35.277344 4.148438 Z M 35.019531 4.066406 " fill-opacity="1" fill-rule="nonzero"/><path fill="#046a38" d="M 32.574219 3.425781 L 33.0625 1.125 L 33.328125 1.179688 L 32.835938 3.484375 Z M 32.574219 3.425781 " fill-opacity="1" fill-rule="nonzero"/><g clip-path="url(#4a73cd2900)"><path fill="#046a38" d="M 30.066406 3.042969 L 30.3125 0.703125 L 30.582031 0.730469 L 30.335938 3.074219 Z M 30.066406 3.042969 " fill-opacity="1" fill-rule="nonzero"/></g><g clip-path="url(#74e01d3a65)"><path fill="#046a38" d="M 27.132812 0.5 L 28.207031 0.5 L 28.207031 3.886719 L 27.132812 3.886719 Z M 27.132812 0.5 " fill-opacity="1" fill-rule="nonzero"/></g><path fill="#046a38" d="M 13.886719 4.332031 L 14.816406 3.796875 L 16.507812 6.730469 L 15.582031 7.265625 Z M 13.886719 4.332031 " fill-opacity="1" fill-rule="nonzero"/><path fill="#046a38" d="M 4.335938 14.28125 L 4.871094 13.351562 L 7.804688 15.046875 L 7.269531 15.972656 Z M 4.335938 14.28125 " fill-opacity="1" fill-rule="nonzero"/><g clip-path="url(#a65bbc70c0)"><path fill="#046a38" d="M 1.035156 26.601562 L 4.421875 26.601562 L 4.421875 27.671875 L 1.035156 27.671875 Z M 1.035156 26.601562 " fill-opacity="1" fill-rule="nonzero"/></g><g clip-path="url(#98dcf17c67)"><path fill="#046a38" d="M 4.332031 39.988281 L 7.269531 38.292969 L 7.804688 39.222656 L 4.871094 40.917969 Z M 4.332031 39.988281 " fill-opacity="1" fill-rule="nonzero"/></g><g clip-path="url(#53dcb0383c)"><path fill="#046a38" d="M 47.539062 39.21875 L 48.074219 38.292969 L 51.007812 39.984375 L 50.472656 40.914062 Z M 47.539062 39.21875 " fill-opacity="1" fill-rule="nonzero"/></g><g clip-path="url(#bec8f302c2)"><path fill="#046a38" d="M 50.917969 26.601562 L 54.308594 26.601562 L 54.308594 27.671875 L 50.917969 27.671875 Z M 50.917969 26.601562 " fill-opacity="1" fill-rule="nonzero"/></g><path fill="#046a38" d="M 47.539062 15.042969 L 50.472656 13.351562 L 51.007812 14.277344 L 48.074219 15.972656 Z M 47.539062 15.042969 " fill-opacity="1" fill-rule="nonzero"/><path fill="#046a38" d="M 38.828125 6.730469 L 40.523438 3.796875 L 41.449219 4.332031 L 39.757812 7.265625 Z M 38.828125 6.730469 " fill-opacity="1" fill-rule="nonzero"/></g></g></g><g clip-path="url(#bb2acb360b)"><path fill="#fb5e05" d="M 37.5 301.996094 C 46.941406 305.828125 53.78125 307.46875 77.117188 306.261719 C 124.367188 303.820312 176.730469 296.929688 187.5 327.445312 C 176.316406 318.152344 144.71875 321.902344 102.21875 320.664062 C 81.066406 320.046875 48.914062 313.824219 37.5 301.996094 Z M 37.5 301.996094 " fill-opacity="1" fill-rule="evenodd"/></g><g clip-path="url(#19cbfc1f15)"><path fill="#009e00" d="M 112.5 324.761719 C 117.21875 326.679688 120.640625 327.5 132.308594 326.898438 C 155.933594 325.675781 182.113281 322.230469 187.5 337.488281 C 181.910156 332.84375 166.109375 334.71875 144.859375 334.097656 C 134.285156 333.789062 118.207031 330.675781 112.5 324.761719 Z M 112.5 324.761719 " fill-opacity="1" fill-rule="evenodd"/></g><g clip-path="url(#bd3d98854c)"><path fill="#fb5e05" d="M 337.5 301.996094 C 328.058594 305.828125 321.21875 307.46875 297.882812 306.261719 C 250.632812 303.820312 198.269531 296.929688 187.5 327.445312 C 198.683594 318.152344 230.28125 321.902344 272.78125 320.664062 C 293.933594 320.046875 326.085938 313.824219 337.5 301.996094 Z M 337.5 301.996094 " fill-opacity="1" fill-rule="evenodd"/></g><g clip-path="url(#71050e8c62)"><path fill="#009e00" d="M 262.5 324.761719 C 257.78125 326.679688 254.359375 327.5 242.691406 326.898438 C 219.066406 325.675781 192.886719 322.230469 187.5 337.488281 C 193.089844 332.84375 208.890625 334.71875 230.140625 334.097656 C 240.714844 333.789062 256.792969 330.675781 262.5 324.761719 Z M 262.5 324.761719 " fill-opacity="1" fill-rule="evenodd"/></g><g fill="#fb5e05" fill-opacity="1"><g transform="translate(93.493659, 293.500411)"><g><path d="M 21.046875 -8.015625 C 20.859375 -5.429688 19.898438 -3.394531 18.171875 -1.90625 C 16.453125 -0.414062 14.179688 0.328125 11.359375 0.328125 C 8.273438 0.328125 5.847656 -0.707031 4.078125 -2.78125 C 2.304688 -4.863281 1.421875 -7.71875 1.421875 -11.34375 L 1.421875 -12.8125 C 1.421875 -15.125 1.828125 -17.160156 2.640625 -18.921875 C 3.460938 -20.691406 4.628906 -22.046875 6.140625 -22.984375 C 7.660156 -23.929688 9.421875 -24.40625 11.421875 -24.40625 C 14.203125 -24.40625 16.441406 -23.660156 18.140625 -22.171875 C 19.835938 -20.679688 20.816406 -18.59375 21.078125 -15.90625 L 16.125 -15.90625 C 16 -17.457031 15.5625 -18.582031 14.8125 -19.28125 C 14.070312 -19.976562 12.941406 -20.328125 11.421875 -20.328125 C 9.765625 -20.328125 8.523438 -19.734375 7.703125 -18.546875 C 6.890625 -17.367188 6.472656 -15.535156 6.453125 -13.046875 L 6.453125 -11.21875 C 6.453125 -8.625 6.84375 -6.722656 7.625 -5.515625 C 8.414062 -4.316406 9.660156 -3.71875 11.359375 -3.71875 C 12.890625 -3.71875 14.03125 -4.066406 14.78125 -4.765625 C 15.539062 -5.460938 15.976562 -6.546875 16.09375 -8.015625 Z M 21.046875 -8.015625 "/></g></g></g><g fill="#fb5e05" fill-opacity="1"><g transform="translate(115.645185, 293.500411)"><g><path d="M 12.203125 0 C 11.984375 -0.425781 11.820312 -0.960938 11.71875 -1.609375 C 10.5625 -0.316406 9.054688 0.328125 7.203125 0.328125 C 5.453125 0.328125 4 -0.175781 2.84375 -1.1875 C 1.695312 -2.207031 1.125 -3.488281 1.125 -5.03125 C 1.125 -6.925781 1.828125 -8.378906 3.234375 -9.390625 C 4.640625 -10.398438 6.671875 -10.910156 9.328125 -10.921875 L 11.515625 -10.921875 L 11.515625 -11.953125 C 11.515625 -12.773438 11.300781 -13.4375 10.875 -13.9375 C 10.457031 -14.4375 9.789062 -14.6875 8.875 -14.6875 C 8.070312 -14.6875 7.441406 -14.492188 6.984375 -14.109375 C 6.523438 -13.722656 6.296875 -13.191406 6.296875 -12.515625 L 1.515625 -12.515625 C 1.515625 -13.546875 1.832031 -14.503906 2.46875 -15.390625 C 3.113281 -16.273438 4.019531 -16.96875 5.1875 -17.46875 C 6.351562 -17.96875 7.664062 -18.21875 9.125 -18.21875 C 11.332031 -18.21875 13.082031 -17.660156 14.375 -16.546875 C 15.664062 -15.441406 16.3125 -13.890625 16.3125 -11.890625 L 16.3125 -4.140625 C 16.320312 -2.441406 16.5625 -1.15625 17.03125 -0.28125 L 17.03125 0 Z M 8.25 -3.328125 C 8.957031 -3.328125 9.609375 -3.484375 10.203125 -3.796875 C 10.796875 -4.109375 11.234375 -4.53125 11.515625 -5.0625 L 11.515625 -8.140625 L 9.734375 -8.140625 C 7.347656 -8.140625 6.078125 -7.3125 5.921875 -5.65625 L 5.90625 -5.375 C 5.90625 -4.78125 6.113281 -4.289062 6.53125 -3.90625 C 6.945312 -3.519531 7.519531 -3.328125 8.25 -3.328125 Z M 8.25 -3.328125 "/></g></g></g><g fill="#fb5e05" fill-opacity="1"><g transform="translate(133.796212, 293.500411)"><g><path d="M 6.234375 -17.890625 L 6.375 -15.828125 C 7.65625 -17.421875 9.367188 -18.21875 11.515625 -18.21875 C 13.410156 -18.21875 14.820312 -17.660156 15.75 -16.546875 C 16.675781 -15.429688 17.148438 -13.769531 17.171875 -11.5625 L 17.171875 0 L 12.40625 0 L 12.40625 -11.4375 C 12.40625 -12.457031 12.179688 -13.191406 11.734375 -13.640625 C 11.296875 -14.097656 10.566406 -14.328125 9.546875 -14.328125 C 8.191406 -14.328125 7.179688 -13.753906 6.515625 -12.609375 L 6.515625 0 L 1.734375 0 L 1.734375 -17.890625 Z M 6.234375 -17.890625 "/></g></g></g><g fill="#4285f4" fill-opacity="1"><g transform="translate(152.767093, 293.500411)"><g><path d="M 7.421875 0 L 2.46875 0 L 2.46875 -24.078125 L 7.421875 -24.078125 Z M 7.421875 0 "/></g></g></g><g fill="#4285f4" fill-opacity="1"><g transform="translate(162.636099, 293.500411)"><g><path d="M 6.3125 -17.890625 L 6.46875 -15.890625 C 7.726562 -17.441406 9.441406 -18.21875 11.609375 -18.21875 C 13.910156 -18.21875 15.488281 -17.304688 16.34375 -15.484375 C 17.601562 -17.304688 19.394531 -18.21875 21.71875 -18.21875 C 23.664062 -18.21875 25.113281 -17.648438 26.0625 -16.515625 C 27.007812 -15.390625 27.484375 -13.691406 27.484375 -11.421875 L 27.484375 0 L 22.6875 0 L 22.6875 -11.40625 C 22.6875 -12.414062 22.488281 -13.15625 22.09375 -13.625 C 21.695312 -14.09375 20.992188 -14.328125 19.984375 -14.328125 C 18.554688 -14.328125 17.566406 -13.644531 17.015625 -12.28125 L 17.03125 0 L 12.25 0 L 12.25 -11.390625 C 12.25 -12.421875 12.046875 -13.164062 11.640625 -13.625 C 11.234375 -14.09375 10.539062 -14.328125 9.5625 -14.328125 C 8.195312 -14.328125 7.210938 -13.765625 6.609375 -12.640625 L 6.609375 0 L 1.828125 0 L 1.828125 -17.890625 Z M 6.3125 -17.890625 "/></g></g></g><g fill="#4285f4" fill-opacity="1"><g transform="translate(191.945549, 293.500411)"><g><path d="M 12.203125 0 C 11.984375 -0.425781 11.820312 -0.960938 11.71875 -1.609375 C 10.5625 -0.316406 9.054688 0.328125 7.203125 0.328125 C 5.453125 0.328125 4 -0.175781 2.84375 -1.1875 C 1.695312 -2.207031 1.125 -3.488281 1.125 -5.03125 C 1.125 -6.925781 1.828125 -8.378906 3.234375 -9.390625 C 4.640625 -10.398438 6.671875 -10.910156 9.328125 -10.921875 L 11.515625 -10.921875 L 11.515625 -11.953125 C 11.515625 -12.773438 11.300781 -13.4375 10.875 -13.9375 C 10.457031 -14.4375 9.789062 -14.6875 8.875 -14.6875 C 8.070312 -14.6875 7.441406 -14.492188 6.984375 -14.109375 C 6.523438 -13.722656 6.296875 -13.191406 6.296875 -12.515625 L 1.515625 -12.515625 C 1.515625 -13.546875 1.832031 -14.503906 2.46875 -15.390625 C 3.113281 -16.273438 4.019531 -16.96875 5.1875 -17.46875 C 6.351562 -17.96875 7.664062 -18.21875 9.125 -18.21875 C 11.332031 -18.21875 13.082031 -17.660156 14.375 -16.546875 C 15.664062 -15.441406 16.3125 -13.890625 16.3125 -11.890625 L 16.3125 -4.140625 C 16.320312 -2.441406 16.5625 -1.15625 17.03125 -0.28125 L 17.03125 0 Z M 8.25 -3.328125 C 8.957031 -3.328125 9.609375 -3.484375 10.203125 -3.796875 C 10.796875 -4.109375 11.234375 -4.53125 11.515625 -5.0625 L 11.515625 -8.140625 L 9.734375 -8.140625 C 7.347656 -8.140625 6.078125 -7.3125 5.921875 -5.65625 L 5.90625 -5.375 C 5.90625 -4.78125 6.113281 -4.289062 6.53125 -3.90625 C 6.945312 -3.519531 7.519531 -3.328125 8.25 -3.328125 Z M 8.25 -3.328125 "/></g></g></g><g fill="#4285f4" fill-opacity="1"><g transform="translate(210.096575, 293.500411)"><g><path d="M 1.140625 -9.078125 C 1.140625 -11.816406 1.789062 -14.023438 3.09375 -15.703125 C 4.40625 -17.378906 6.164062 -18.21875 8.375 -18.21875 C 10.34375 -18.21875 11.875 -17.546875 12.96875 -16.203125 L 13.15625 -17.890625 L 17.484375 -17.890625 L 17.484375 -0.59375 C 17.484375 0.96875 17.128906 2.328125 16.421875 3.484375 C 15.710938 4.640625 14.710938 5.519531 13.421875 6.125 C 12.128906 6.738281 10.617188 7.046875 8.890625 7.046875 C 7.578125 7.046875 6.296875 6.78125 5.046875 6.25 C 3.804688 5.726562 2.867188 5.054688 2.234375 4.234375 L 4.34375 1.328125 C 5.539062 2.660156 6.988281 3.328125 8.6875 3.328125 C 9.945312 3.328125 10.929688 2.988281 11.640625 2.3125 C 12.347656 1.632812 12.703125 0.671875 12.703125 -0.578125 L 12.703125 -1.53125 C 11.597656 -0.289062 10.144531 0.328125 8.34375 0.328125 C 6.195312 0.328125 4.457031 -0.507812 3.125 -2.1875 C 1.800781 -3.875 1.140625 -6.101562 1.140625 -8.875 Z M 5.921875 -8.734375 C 5.921875 -7.109375 6.242188 -5.832031 6.890625 -4.90625 C 7.546875 -3.988281 8.441406 -3.53125 9.578125 -3.53125 C 11.023438 -3.53125 12.066406 -4.078125 12.703125 -5.171875 L 12.703125 -12.703125 C 12.054688 -13.785156 11.023438 -14.328125 9.609375 -14.328125 C 8.460938 -14.328125 7.5625 -13.859375 6.90625 -12.921875 C 6.25 -11.984375 5.921875 -10.585938 5.921875 -8.734375 Z M 5.921875 -8.734375 "/></g></g></g><g fill="#4285f4" fill-opacity="1"><g transform="translate(229.421308, 293.500411)"><g><path d="M 10.0625 0.328125 C 7.445312 0.328125 5.3125 -0.472656 3.65625 -2.078125 C 2.007812 -3.691406 1.1875 -5.835938 1.1875 -8.515625 L 1.1875 -8.984375 C 1.1875 -10.773438 1.535156 -12.378906 2.234375 -13.796875 C 2.929688 -15.210938 3.914062 -16.300781 5.1875 -17.0625 C 6.457031 -17.832031 7.910156 -18.21875 9.546875 -18.21875 C 11.984375 -18.21875 13.90625 -17.445312 15.3125 -15.90625 C 16.71875 -14.363281 17.421875 -12.175781 17.421875 -9.34375 L 17.421875 -7.390625 L 6.03125 -7.390625 C 6.1875 -6.222656 6.648438 -5.285156 7.421875 -4.578125 C 8.203125 -3.867188 9.1875 -3.515625 10.375 -3.515625 C 12.21875 -3.515625 13.660156 -4.179688 14.703125 -5.515625 L 17.046875 -2.890625 C 16.328125 -1.878906 15.351562 -1.085938 14.125 -0.515625 C 12.90625 0.046875 11.550781 0.328125 10.0625 0.328125 Z M 9.515625 -14.34375 C 8.566406 -14.34375 7.796875 -14.023438 7.203125 -13.390625 C 6.617188 -12.753906 6.242188 -11.835938 6.078125 -10.640625 L 12.734375 -10.640625 L 12.734375 -11.03125 C 12.710938 -12.082031 12.425781 -12.894531 11.875 -13.46875 C 11.320312 -14.050781 10.535156 -14.34375 9.515625 -14.34375 Z M 9.515625 -14.34375 "/></g></g></g><g fill="#009e00" fill-opacity="1"><g transform="translate(247.724122, 293.500411)"><g><path d="M 7.421875 0 L 2.46875 0 L 2.46875 -24.078125 L 7.421875 -24.078125 Z M 7.421875 0 "/></g></g></g><g fill="#009e00" fill-opacity="1"><g transform="translate(257.593128, 293.500411)"><g><path d="M 21.71875 0 L 16.765625 0 L 7.109375 -15.84375 L 7.109375 0 L 2.15625 0 L 2.15625 -24.078125 L 7.109375 -24.078125 L 16.78125 -8.203125 L 16.78125 -24.078125 L 21.71875 -24.078125 Z M 21.71875 0 "/></g></g></g><g clip-path="url(#d1afd60ea3)"><path fill="#ea4335" d="M 161.773438 135.082031 C 158.875 131.761719 156.242188 130.390625 153.949219 131.007812 C 150.550781 131.921875 149.03125 136.851562 148.558594 138.792969 C 148.105469 138.285156 147.765625 137.621094 147.65625 136.742188 L 147.65625 121.886719 C 147.65625 121.648438 147.464844 121.457031 147.226562 121.457031 C 146.988281 121.457031 146.792969 121.648438 146.792969 121.886719 L 146.796875 136.796875 C 146.976562 138.234375 147.636719 139.203125 148.476562 139.867188 C 148.53125 139.957031 148.613281 140.019531 148.710938 140.050781 C 149.84375 140.839844 151.230469 141.117188 152.234375 141.210938 C 152.253906 141.214844 152.269531 141.226562 152.285156 141.226562 C 152.300781 141.226562 152.3125 141.222656 152.328125 141.21875 C 152.652344 141.246094 152.941406 141.257812 153.152344 141.257812 C 153.402344 141.257812 153.554688 141.246094 153.566406 141.246094 C 153.566406 141.246094 153.570312 141.242188 153.570312 141.242188 C 154.425781 141.234375 155.191406 141.019531 155.855469 140.710938 C 156.578125 141.578125 157.730469 141.753906 158.519531 141.753906 C 159 141.753906 159.347656 141.691406 159.386719 141.683594 C 159.621094 141.640625 159.773438 141.414062 159.730469 141.183594 C 159.6875 140.949219 159.449219 140.796875 159.226562 140.839844 C 159.207031 140.84375 157.527344 141.136719 156.640625 140.28125 C 157.894531 139.480469 158.628906 138.460938 158.675781 138.390625 C 158.8125 138.195312 158.765625 137.925781 158.570312 137.789062 C 158.378906 137.652344 158.109375 137.699219 157.972656 137.894531 C 157.953125 137.921875 156.191406 140.386719 153.511719 140.386719 C 153.503906 140.386719 153.496094 140.386719 153.492188 140.386719 C 153.488281 140.386719 153.484375 140.386719 153.480469 140.386719 C 153.40625 140.394531 153.078125 140.414062 152.609375 140.394531 C 152.050781 138.480469 153.800781 136.90625 153.878906 136.835938 C 154.058594 136.679688 154.074219 136.40625 153.917969 136.230469 C 153.761719 136.050781 153.488281 136.035156 153.3125 136.1875 C 153.21875 136.269531 151.257812 138.027344 151.703125 140.304688 C 150.933594 140.1875 150.050781 139.941406 149.296875 139.4375 C 149.5625 138.21875 150.941406 132.707031 154.171875 131.839844 C 156.125 131.320312 158.460938 132.597656 161.125 135.648438 C 170.621094 146.535156 164.210938 166.199219 164.125 166.460938 C 164.03125 167.023438 163.578125 168.542969 162.667969 168.765625 C 161.847656 168.96875 160.632812 168.082031 159.257812 166.269531 C 156.664062 162.863281 152.433594 163.289062 152.25 163.308594 C 152.222656 163.308594 151.742188 163.34375 151.125 162.746094 C 149.871094 161.523438 147.925781 157.519531 148.832031 144.441406 C 151.398438 144.800781 152.871094 145.453125 153.230469 145.628906 C 153.253906 145.648438 153.273438 145.671875 153.304688 145.683594 C 153.640625 145.847656 154 146.132812 154.375 146.527344 C 154.421875 146.800781 154.488281 147.84375 153.167969 149.335938 C 153.011719 149.511719 153.027344 149.785156 153.207031 149.941406 C 153.289062 150.015625 153.390625 150.050781 153.492188 150.050781 C 153.609375 150.050781 153.726562 150 153.8125 149.90625 C 154.652344 148.957031 155.019531 148.136719 155.167969 147.503906 C 155.53125 148.011719 155.902344 148.605469 156.269531 149.277344 C 156.878906 150.425781 157.058594 151.113281 156.5 152.078125 C 156.378906 152.148438 156.269531 152.222656 156.179688 152.292969 L 155.824219 151.742188 L 155.890625 150.582031 C 155.90625 150.34375 155.722656 150.140625 155.484375 150.128906 C 155.246094 150.121094 155.042969 150.296875 155.03125 150.53125 L 154.980469 151.398438 L 154.074219 151.332031 C 153.839844 151.3125 153.628906 151.492188 153.609375 151.726562 C 153.59375 151.964844 153.769531 152.171875 154.007812 152.191406 L 155.136719 152.273438 L 155.367188 152.625 C 154.660156 152.855469 154.089844 153.417969 153.871094 154.152344 C 153.671875 154.832031 153.816406 155.546875 154.214844 156.113281 L 153.15625 156.742188 L 152.160156 156.449219 C 151.933594 156.378906 151.695312 156.511719 151.625 156.738281 C 151.558594 156.964844 151.6875 157.207031 151.917969 157.273438 L 152.621094 157.480469 L 152.328125 158.144531 C 152.230469 158.363281 152.328125 158.617188 152.546875 158.714844 C 152.601562 158.738281 152.660156 158.75 152.71875 158.75 C 152.886719 158.75 153.042969 158.65625 153.113281 158.496094 L 153.554688 157.507812 L 154.429688 156.984375 C 154.507812 157.34375 154.675781 157.679688 154.9375 157.941406 C 154.902344 158.019531 154.871094 158.101562 154.84375 158.183594 C 154.757812 158.480469 154.769531 158.78125 154.835938 159.074219 L 153.519531 159.570312 C 153.296875 159.65625 153.183594 159.902344 153.269531 160.125 C 153.332031 160.296875 153.496094 160.402344 153.671875 160.402344 C 153.722656 160.402344 153.773438 160.394531 153.824219 160.375 L 154.582031 160.089844 C 154.375 161.25 155.0625 162.40625 156.21875 162.75 C 156.347656 162.785156 156.476562 162.8125 156.621094 162.828125 C 157.085938 163.226562 157.640625 163.429688 158.246094 163.429688 C 158.320312 163.429688 158.394531 163.429688 158.46875 163.421875 C 159.273438 163.355469 160.019531 162.894531 160.425781 162.21875 C 160.542969 162.019531 160.628906 161.808594 160.691406 161.59375 L 161.476562 162.363281 L 161.632812 163.496094 C 161.664062 163.710938 161.847656 163.867188 162.058594 163.867188 C 162.078125 163.867188 162.097656 163.867188 162.121094 163.863281 C 162.355469 163.828125 162.519531 163.613281 162.488281 163.375 L 162.371094 162.554688 L 163.261719 162.488281 C 163.5 162.46875 163.675781 162.265625 163.660156 162.027344 C 163.640625 161.789062 163.433594 161.613281 163.195312 161.628906 L 162.042969 161.714844 L 161.214844 160.902344 C 161.945312 160.632812 162.527344 160.058594 162.761719 159.28125 C 162.859375 158.945312 162.878906 158.597656 162.835938 158.253906 L 163.375 158.382812 L 164.078125 159.28125 C 164.164062 159.386719 164.289062 159.445312 164.417969 159.445312 C 164.511719 159.445312 164.605469 159.414062 164.683594 159.351562 C 164.871094 159.207031 164.902344 158.9375 164.757812 158.75 L 164.246094 158.09375 L 164.980469 157.59375 C 165.175781 157.457031 165.226562 157.191406 165.09375 156.996094 C 164.957031 156.796875 164.6875 156.75 164.492188 156.882812 L 163.535156 157.535156 L 163.0625 157.425781 C 163.59375 156.707031 163.78125 155.742188 163.546875 154.8125 C 163.199219 153.4375 162.175781 152.84375 161.351562 152.636719 L 161.679688 152.054688 L 162.738281 151.628906 C 162.957031 151.539062 163.066406 151.289062 162.976562 151.070312 C 162.886719 150.847656 162.632812 150.742188 162.414062 150.832031 L 161.640625 151.144531 L 161.363281 150.296875 C 161.289062 150.074219 161.042969 149.949219 160.816406 150.023438 C 160.589844 150.097656 160.46875 150.34375 160.542969 150.570312 L 160.910156 151.667969 L 160.535156 152.332031 C 159.410156 151.554688 158.410156 151.460938 157.621094 151.628906 C 157.816406 150.871094 157.65625 150.167969 157.269531 149.355469 C 157.394531 149.367188 157.523438 149.394531 157.648438 149.394531 C 157.703125 149.394531 157.757812 149.394531 157.808594 149.390625 C 158.773438 149.34375 159.660156 148.78125 160.179688 147.910156 C 160.617188 147.632812 161.019531 147.527344 161.382812 147.609375 C 161.945312 147.742188 162.261719 148.285156 162.265625 148.292969 C 162.34375 148.433594 162.492188 148.511719 162.640625 148.511719 C 162.710938 148.511719 162.785156 148.496094 162.851562 148.457031 C 163.058594 148.34375 163.132812 148.082031 163.019531 147.871094 C 163 147.835938 162.523438 147 161.589844 146.777344 C 161.257812 146.695312 160.917969 146.707031 160.570312 146.800781 C 160.738281 145.347656 159.601562 144.128906 158.851562 143.625 C 158.65625 143.492188 158.386719 143.542969 158.253906 143.738281 C 158.121094 143.9375 158.171875 144.203125 158.371094 144.335938 C 158.449219 144.390625 160.335938 145.699219 159.53125 147.316406 C 159.179688 148.019531 158.488281 148.496094 157.769531 148.53125 C 157.414062 148.550781 157.070312 148.476562 156.730469 148.34375 C 156.273438 147.5625 155.714844 146.722656 155.097656 146.042969 C 155.085938 146.027344 155.070312 146.015625 155.058594 146.003906 C 154.671875 145.585938 154.261719 145.238281 153.835938 145.003906 C 153.808594 144.972656 153.777344 144.941406 153.738281 144.921875 C 153.621094 144.855469 150.804688 143.339844 145.246094 143.339844 C 144.035156 143.339844 142.960938 143.414062 142.007812 143.527344 C 142.003906 143.527344 142 143.527344 141.996094 143.527344 C 141.992188 143.527344 141.988281 143.53125 141.980469 143.53125 C 138.695312 143.925781 136.964844 144.804688 136.773438 144.910156 C 136.773438 144.910156 136.769531 144.910156 136.769531 144.910156 C 136.765625 144.914062 136.753906 144.917969 136.75 144.921875 C 136.75 144.921875 136.75 144.925781 136.746094 144.925781 C 136.273438 145.15625 135.820312 145.542969 135.390625 146 C 135.378906 146.015625 135.367188 146.027344 135.355469 146.039062 C 134.738281 146.710938 134.1875 147.542969 133.722656 148.347656 C 132.535156 148.808594 131.65625 148.242188 131.613281 148.214844 C 131.421875 148.082031 131.152344 148.128906 131.015625 148.324219 C 130.878906 148.519531 130.929688 148.785156 131.125 148.921875 C 131.164062 148.949219 131.820312 149.394531 132.800781 149.394531 C 132.90625 149.394531 133.015625 149.390625 133.128906 149.378906 C 132.898438 149.742188 132.609375 150.058594 132.253906 150.261719 C 131.738281 150.558594 131.054688 151.226562 130.722656 152.714844 C 130.636719 153.101562 130.457031 153.375 130.167969 153.546875 C 130.167969 153.546875 130.164062 153.546875 130.164062 153.550781 C 130.15625 153.554688 130.144531 153.558594 130.136719 153.5625 C 129.417969 153.964844 128.328125 153.671875 128.316406 153.667969 C 128.085938 153.605469 127.847656 153.738281 127.785156 153.964844 C 127.71875 154.191406 127.851562 154.429688 128.078125 154.496094 C 128.113281 154.503906 128.585938 154.636719 129.175781 154.636719 C 129.394531 154.636719 129.628906 154.617188 129.863281 154.566406 C 129.878906 154.839844 129.9375 155.152344 130.109375 155.445312 C 130.347656 155.863281 130.734375 156.140625 131.261719 156.28125 C 131.296875 156.289062 131.335938 156.292969 131.371094 156.292969 C 131.5625 156.292969 131.738281 156.167969 131.785156 155.972656 C 131.847656 155.742188 131.710938 155.507812 131.480469 155.449219 C 131.183594 155.371094 130.980469 155.230469 130.859375 155.023438 C 130.691406 154.734375 130.714844 154.378906 130.742188 154.1875 C 131.160156 153.890625 131.441406 153.464844 131.566406 152.902344 C 131.742188 152.101562 132.023438 151.617188 132.300781 151.320312 C 132.46875 152.707031 133.167969 153.144531 133.777344 153.25 C 133.800781 153.257812 133.828125 153.257812 133.851562 153.257812 C 134.058594 153.257812 134.238281 153.109375 134.273438 152.902344 C 134.316406 152.667969 134.160156 152.445312 133.925781 152.402344 C 133.398438 152.3125 133.132812 151.730469 133.128906 150.695312 C 133.492188 150.398438 133.800781 150.023438 134.023438 149.585938 C 134.320312 149.011719 134.761719 148.230469 135.28125 147.503906 C 135.425781 148.128906 135.785156 148.941406 136.605469 149.863281 C 136.667969 149.953125 138.105469 152.109375 136.601562 154.335938 C 136.167969 154.980469 135.984375 155.597656 136.042969 156.175781 C 135.242188 156.34375 134.628906 156.699219 134.238281 157.261719 C 133.480469 158.34375 133.824219 159.730469 133.839844 159.789062 C 133.890625 159.984375 134.066406 160.113281 134.257812 160.113281 C 134.292969 160.113281 134.328125 160.109375 134.363281 160.101562 C 134.597656 160.039062 134.734375 159.804688 134.675781 159.578125 C 134.671875 159.566406 134.421875 158.503906 134.945312 157.753906 C 135.21875 157.359375 135.683594 157.113281 136.304688 157 C 136.882812 158.03125 138.195312 158.46875 138.253906 158.488281 C 138.296875 158.503906 138.34375 158.507812 138.386719 158.507812 C 138.570312 158.507812 138.738281 158.394531 138.796875 158.210938 C 138.871094 157.984375 138.742188 157.742188 138.515625 157.667969 C 138.503906 157.664062 137.253906 157.246094 136.953125 156.378906 C 136.796875 155.929688 136.917969 155.40625 137.316406 154.816406 C 139.152344 152.09375 137.390625 149.484375 137.28125 149.335938 C 135.96875 147.851562 136.027344 146.808594 136.074219 146.53125 C 136.421875 146.167969 136.78125 145.859375 137.144531 145.683594 C 137.148438 145.683594 137.152344 145.679688 137.15625 145.679688 C 137.160156 145.675781 137.164062 145.675781 137.167969 145.675781 C 137.1875 145.664062 138.695312 144.863281 141.628906 144.445312 C 142.53125 157.519531 140.582031 161.523438 139.332031 162.746094 C 138.710938 163.347656 138.230469 163.308594 138.199219 163.304688 C 138.019531 163.285156 133.785156 162.863281 131.1875 166.269531 C 129.8125 168.078125 128.609375 168.964844 127.78125 168.765625 C 126.875 168.542969 126.421875 167.027344 126.3125 166.394531 C 126.246094 166.199219 119.832031 146.535156 129.320312 135.648438 C 131.992188 132.589844 134.335938 131.3125 136.289062 131.84375 C 139.496094 132.714844 140.882812 138.1875 141.160156 139.4375 C 140.402344 139.941406 139.511719 140.191406 138.746094 140.304688 C 139.191406 138.027344 137.230469 136.269531 137.140625 136.1875 C 136.960938 136.035156 136.6875 136.050781 136.53125 136.230469 C 136.375 136.40625 136.394531 136.679688 136.570312 136.835938 C 136.648438 136.90625 138.398438 138.480469 137.839844 140.390625 C 137.371094 140.414062 137.042969 140.390625 136.992188 140.386719 C 136.988281 140.386719 136.980469 140.390625 136.976562 140.390625 C 136.96875 140.390625 136.964844 140.386719 136.960938 140.386719 C 136.957031 140.386719 136.957031 140.386719 136.957031 140.386719 C 136.949219 140.386719 136.945312 140.386719 136.9375 140.386719 C 134.269531 140.386719 132.496094 137.917969 132.480469 137.894531 C 132.339844 137.699219 132.070312 137.652344 131.878906 137.789062 C 131.683594 137.925781 131.636719 138.195312 131.773438 138.390625 C 131.824219 138.460938 132.554688 139.476562 133.808594 140.28125 C 132.921875 141.128906 131.242188 140.84375 131.222656 140.839844 C 130.984375 140.796875 130.765625 140.949219 130.71875 141.183594 C 130.675781 141.417969 130.832031 141.640625 131.066406 141.683594 C 131.101562 141.691406 131.449219 141.753906 131.929688 141.753906 C 132.722656 141.753906 133.871094 141.578125 134.59375 140.710938 C 135.273438 141.023438 136.058594 141.246094 136.9375 141.246094 C 136.941406 141.246094 136.941406 141.246094 136.945312 141.246094 C 136.988281 141.25 137.121094 141.257812 137.332031 141.257812 C 137.535156 141.257812 137.8125 141.246094 138.132812 141.222656 C 138.140625 141.222656 138.152344 141.226562 138.164062 141.226562 C 138.175781 141.226562 138.191406 141.214844 138.203125 141.214844 C 139.222656 141.125 140.660156 140.84375 141.820312 140.007812 C 141.890625 139.972656 141.957031 139.925781 142 139.863281 C 142.84375 139.191406 143.511719 138.207031 143.695312 136.742188 L 143.695312 121.886719 C 143.695312 121.648438 143.503906 121.457031 143.265625 121.457031 C 143.027344 121.457031 142.832031 121.648438 142.832031 121.886719 L 142.835938 136.6875 C 142.722656 137.601562 142.371094 138.28125 141.898438 138.800781 C 141.433594 136.894531 139.910156 131.9375 136.519531 131.011719 C 134.214844 130.386719 131.578125 131.753906 128.671875 135.082031 C 118.855469 146.34375 125.425781 166.464844 125.476562 166.601562 C 125.496094 166.707031 125.933594 169.199219 127.574219 169.601562 C 127.726562 169.636719 127.878906 169.65625 128.035156 169.65625 C 129.152344 169.65625 130.414062 168.714844 131.871094 166.792969 C 134.171875 163.777344 138.0625 164.15625 138.085938 164.160156 C 138.171875 164.171875 138.957031 164.265625 139.859375 163.429688 C 141.558594 161.859375 143.382812 157.265625 142.488281 144.339844 C 143.3125 144.253906 144.230469 144.199219 145.246094 144.199219 C 146.246094 144.199219 147.15625 144.253906 147.976562 144.335938 C 147.074219 157.265625 148.894531 161.859375 150.59375 163.429688 C 151.496094 164.261719 152.28125 164.171875 152.351562 164.160156 C 152.390625 164.15625 156.269531 163.765625 158.570312 166.792969 C 160.03125 168.714844 161.292969 169.65625 162.410156 169.65625 C 162.566406 169.65625 162.722656 169.636719 162.871094 169.601562 C 164.515625 169.199219 164.957031 166.710938 164.960938 166.667969 C 165.027344 166.464844 171.597656 146.34375 161.773438 135.082031 Z M 160.398438 153.300781 C 160.410156 153.3125 160.429688 153.316406 160.445312 153.328125 C 160.449219 153.332031 160.453125 153.335938 160.460938 153.339844 C 160.464844 153.34375 160.472656 153.34375 160.476562 153.347656 C 160.539062 153.375 160.601562 153.398438 160.667969 153.398438 C 160.734375 153.398438 162.308594 153.429688 162.710938 155.019531 C 162.90625 155.808594 162.707031 156.617188 162.179688 157.136719 C 162.109375 157.207031 162.035156 157.269531 161.960938 157.324219 C 161.949219 157.335938 161.945312 157.347656 161.933594 157.359375 C 161.910156 157.378906 161.882812 157.402344 161.867188 157.429688 C 161.855469 157.449219 161.847656 157.46875 161.839844 157.484375 C 161.828125 157.511719 161.808594 157.535156 161.804688 157.566406 C 161.796875 157.59375 161.800781 157.621094 161.800781 157.644531 C 161.796875 157.667969 161.792969 157.691406 161.796875 157.71875 C 161.800781 157.746094 161.8125 157.773438 161.820312 157.800781 C 161.828125 157.816406 161.828125 157.835938 161.835938 157.851562 C 162.011719 158.226562 162.046875 158.648438 161.933594 159.035156 C 161.726562 159.738281 161.085938 160.214844 160.34375 160.222656 C 160.285156 160.222656 160.226562 160.234375 160.171875 160.257812 C 160.15625 160.265625 160.140625 160.28125 160.125 160.289062 C 160.097656 160.308594 160.0625 160.324219 160.039062 160.351562 C 160.035156 160.351562 160.035156 160.355469 160.03125 160.359375 C 160.027344 160.363281 160.023438 160.363281 160.019531 160.367188 C 160.007812 160.382812 160.003906 160.40625 159.992188 160.421875 C 159.972656 160.449219 159.953125 160.480469 159.941406 160.511719 C 159.933594 160.53125 159.933594 160.554688 159.929688 160.578125 C 159.921875 160.613281 159.917969 160.644531 159.917969 160.679688 C 159.921875 160.6875 159.917969 160.695312 159.917969 160.703125 C 159.960938 161.078125 159.882812 161.449219 159.683594 161.777344 C 159.421875 162.21875 158.929688 162.519531 158.398438 162.5625 C 157.898438 162.609375 157.464844 162.449219 157.101562 162.097656 C 157.027344 162.023438 156.925781 161.984375 156.820312 161.976562 C 156.679688 161.972656 156.566406 161.953125 156.460938 161.921875 C 155.675781 161.691406 155.226562 160.863281 155.457031 160.078125 C 155.507812 159.90625 155.59375 159.746094 155.707031 159.597656 C 155.714844 159.589844 155.714844 159.578125 155.71875 159.570312 C 155.757812 159.511719 155.78125 159.453125 155.789062 159.386719 C 155.792969 159.378906 155.796875 159.371094 155.796875 159.359375 C 155.800781 159.300781 155.792969 159.242188 155.769531 159.179688 C 155.765625 159.167969 155.757812 159.160156 155.75 159.148438 C 155.746094 159.140625 155.75 159.132812 155.746094 159.125 C 155.628906 158.910156 155.601562 158.664062 155.671875 158.429688 C 155.707031 158.3125 155.761719 158.207031 155.839844 158.113281 C 155.914062 158.015625 155.949219 157.890625 155.925781 157.769531 C 155.90625 157.648438 155.835938 157.542969 155.730469 157.476562 C 155.390625 157.265625 155.199219 156.875 155.25 156.484375 C 155.253906 156.441406 155.265625 156.402344 155.285156 156.335938 C 155.285156 156.332031 155.285156 156.332031 155.285156 156.332031 C 155.300781 156.265625 155.296875 156.191406 155.277344 156.121094 C 155.273438 156.101562 155.265625 156.085938 155.261719 156.070312 C 155.25 156.046875 155.25 156.023438 155.238281 156.003906 C 155.21875 155.972656 155.191406 155.949219 155.164062 155.921875 C 155.15625 155.914062 155.15625 155.902344 155.148438 155.898438 C 154.714844 155.527344 154.539062 154.9375 154.699219 154.394531 C 154.878906 153.78125 155.433594 153.371094 156.078125 153.371094 C 156.082031 153.371094 156.082031 153.371094 156.085938 153.371094 C 156.085938 153.371094 156.089844 153.371094 156.09375 153.371094 C 156.199219 153.371094 156.296875 153.332031 156.371094 153.265625 C 156.382812 153.257812 156.394531 153.246094 156.402344 153.234375 C 156.40625 153.230469 156.410156 153.230469 156.410156 153.226562 C 156.4375 153.195312 156.652344 152.964844 157.011719 152.757812 C 157.027344 152.75 157.039062 152.742188 157.054688 152.734375 C 157.738281 152.355469 158.917969 152.089844 160.398438 153.300781 Z M 160.398438 153.300781 " fill-opacity="1" fill-rule="nonzero"/></g><path fill="#ea4335" d="M 159.644531 158.050781 C 159.875 158.050781 160.113281 157.988281 160.324219 157.859375 C 160.535156 157.730469 160.703125 157.539062 160.808594 157.316406 C 161.085938 157.296875 161.351562 157.199219 161.582031 157.03125 C 161.914062 156.789062 162.128906 156.433594 162.195312 156.03125 C 162.257812 155.628906 162.160156 155.226562 161.917969 154.894531 C 161.679688 154.5625 161.324219 154.347656 160.921875 154.285156 C 160.09375 154.148438 159.324219 154.707031 159.175781 155.523438 C 159.097656 155.550781 159.027344 155.582031 158.957031 155.625 C 158.660156 155.808594 158.449219 156.09375 158.367188 156.433594 C 158.285156 156.773438 158.339844 157.125 158.523438 157.425781 C 158.769531 157.828125 159.203125 158.050781 159.644531 158.050781 Z M 159.207031 156.636719 C 159.234375 156.519531 159.304688 156.421875 159.40625 156.359375 C 159.457031 156.328125 159.523438 156.3125 159.613281 156.304688 C 159.726562 156.300781 159.835938 156.246094 159.914062 156.160156 C 159.988281 156.074219 160.027344 155.957031 160.015625 155.84375 C 160.011719 155.785156 160.011719 155.734375 160.019531 155.691406 C 160.074219 155.359375 160.359375 155.125 160.683594 155.125 C 160.714844 155.125 160.75 155.128906 160.785156 155.132812 C 160.960938 155.160156 161.117188 155.257812 161.222656 155.402344 C 161.328125 155.546875 161.371094 155.722656 161.34375 155.898438 C 161.316406 156.074219 161.21875 156.230469 161.074219 156.332031 C 160.929688 156.4375 160.753906 156.484375 160.644531 156.46875 C 160.613281 156.460938 160.574219 156.453125 160.542969 156.449219 C 160.324219 156.429688 160.109375 156.582031 160.074219 156.808594 C 160.058594 156.890625 160.019531 157.035156 159.875 157.125 C 159.773438 157.1875 159.652344 157.203125 159.535156 157.175781 C 159.421875 157.148438 159.320312 157.078125 159.257812 156.976562 C 159.195312 156.875 159.175781 156.753906 159.207031 156.636719 Z M 159.207031 156.636719 " fill-opacity="1" fill-rule="nonzero"/><path fill="#ea4335" d="M 156.230469 153.667969 C 155.894531 153.851562 155.652344 154.152344 155.542969 154.515625 C 155.433594 154.878906 155.476562 155.265625 155.65625 155.601562 C 155.839844 155.933594 156.140625 156.179688 156.507812 156.285156 C 156.640625 156.324219 156.773438 156.34375 156.910156 156.34375 C 157.523438 156.34375 158.09375 155.941406 158.277344 155.324219 C 158.386719 154.960938 158.34375 154.574219 158.164062 154.242188 C 157.980469 153.90625 157.679688 153.664062 157.316406 153.554688 C 156.949219 153.449219 156.5625 153.488281 156.230469 153.667969 Z M 157.453125 155.078125 C 157.363281 155.378906 157.046875 155.546875 156.75 155.460938 C 156.605469 155.417969 156.488281 155.320312 156.414062 155.1875 C 156.34375 155.058594 156.328125 154.90625 156.371094 154.761719 C 156.414062 154.617188 156.507812 154.496094 156.640625 154.425781 C 156.773438 154.355469 156.925781 154.339844 157.070312 154.378906 C 157.214844 154.421875 157.335938 154.519531 157.40625 154.652344 C 157.476562 154.785156 157.492188 154.9375 157.453125 155.078125 Z M 157.453125 155.078125 " fill-opacity="1" fill-rule="nonzero"/><path fill="#ea4335" d="M 158.351562 158.550781 C 157.984375 158.445312 157.601562 158.484375 157.269531 158.664062 C 156.933594 158.847656 156.691406 159.144531 156.585938 159.507812 C 156.363281 160.257812 156.792969 161.050781 157.542969 161.269531 C 157.675781 161.308594 157.8125 161.332031 157.949219 161.332031 C 158.183594 161.332031 158.414062 161.273438 158.625 161.15625 C 158.957031 160.976562 159.199219 160.675781 159.308594 160.316406 C 159.414062 159.953125 159.375 159.566406 159.195312 159.234375 C 159.011719 158.902344 158.714844 158.660156 158.351562 158.550781 Z M 158.480469 160.070312 C 158.4375 160.210938 158.34375 160.332031 158.210938 160.402344 C 158.082031 160.472656 157.929688 160.488281 157.789062 160.445312 C 157.492188 160.359375 157.324219 160.046875 157.410156 159.753906 C 157.453125 159.609375 157.546875 159.492188 157.679688 159.421875 C 157.761719 159.378906 157.855469 159.355469 157.945312 159.355469 C 158 159.355469 158.050781 159.363281 158.105469 159.378906 C 158.246094 159.417969 158.367188 159.515625 158.4375 159.644531 C 158.507812 159.777344 158.523438 159.925781 158.480469 160.070312 Z M 158.480469 160.070312 " fill-opacity="1" fill-rule="nonzero"/><g mask="url(#f7ea80d4b5)"><g transform="matrix(1, 0, 0, 1, 186, 106)"><g clip-path="url(#b7b4b345f5)"><g clip-path="url(#1d4843f0cb)"><path stroke-linecap="butt" transform="matrix(0.392317, -0.356449, 0.356449, 0.392317, 0.811237, 8.32967)" fill="none" stroke-linejoin="miter" d="M -0.00357059 0.500617 L 20.984135 0.502112 " stroke="#046a38" stroke-width="1" stroke-opacity="1" stroke-miterlimit="4"/></g></g></g></g><g mask="url(#4d4bf35f0e)"><g transform="matrix(1, 0, 0, 1, 179, 94)"><g clip-path="url(#ff9b863a10)"><g clip-path="url(#96ec52b943)"><path stroke-linecap="butt" transform="matrix(0.181017, 0.498199, -0.498199, 0.181017, 1.096218, 1.077523)" fill="none" stroke-linejoin="miter" d="M 0.000234729 0.499007 L 39.454016 0.501382 " stroke="#046a38" stroke-width="1" stroke-opacity="1" stroke-miterlimit="4"/></g></g></g></g></svg>